<svg width="64" height="64" viewBox="0 0 64 64" fill="none" xmlns="http://www.w3.org/2000/svg">
<path opacity="0.16" d="M50.4999 0.949219C53.17 0.949219 55.7801 1.74098 58.0001 3.22438C60.2202 4.70778 61.9505 6.81619 62.9723 9.28299C63.9941 11.7498 64.2614 14.4642 63.7405 17.0829C63.2196 19.7017 61.9339 22.1072 60.0459 23.9952C58.1579 25.8832 55.7524 27.1689 53.1337 27.6898C50.5149 28.2107 47.8005 27.9434 45.3337 26.9216C42.8669 25.8998 40.7585 24.1695 39.2751 21.9494C37.7917 19.7294 36.9999 17.1193 36.9999 14.4492C36.9999 10.8688 38.4223 7.43502 40.954 4.90328C43.4857 2.37154 46.9195 0.949219 50.4999 0.949219Z" fill="#FF5A3C"/>
<path d="M56.6159 63.3504H45.9449C45.8344 63.3515 45.7246 63.3309 45.622 63.2897C45.5194 63.2485 45.4259 63.1875 45.3469 63.1101C45.2679 63.0328 45.2049 62.9406 45.1615 62.8389C45.1181 62.7372 45.0951 62.628 45.0939 62.5174V27.5174C45.0951 27.4068 45.1181 27.2975 45.1615 27.1958C45.2049 27.0941 45.2679 27.002 45.3469 26.9246C45.4259 26.8473 45.5194 26.7862 45.622 26.745C45.7246 26.7038 45.8344 26.6832 45.9449 26.6844H56.6159C56.7265 26.6832 56.8362 26.7038 56.9388 26.745C57.0415 26.7862 57.1349 26.8473 57.214 26.9246C57.293 27.002 57.356 27.0941 57.3994 27.1958C57.4428 27.2975 57.4658 27.4068 57.4669 27.5174V62.5174C57.4658 62.628 57.4428 62.7372 57.3994 62.8389C57.356 62.9406 57.293 63.0328 57.214 63.1101C57.1349 63.1875 57.0415 63.2485 56.9388 63.2897C56.8362 63.3309 56.7265 63.3515 56.6159 63.3504ZM46.7959 61.6834H55.7619V28.3474H46.7959V61.6834Z" fill="#FF5A3C"/>
<path d="M58.7069 28.3474H45.9449C45.7215 28.3496 45.5064 28.2629 45.3468 28.1066C45.1873 27.9502 45.0963 27.7369 45.0939 27.5134V23.3394C45.095 23.2288 45.1178 23.1194 45.1612 23.0176C45.2045 22.9158 45.2675 22.8235 45.3466 22.746C45.4256 22.6686 45.5191 22.6075 45.6218 22.5662C45.7245 22.5249 45.8343 22.5042 45.9449 22.5054H58.7069C58.8176 22.5042 58.9274 22.5249 59.0301 22.5662C59.1328 22.6075 59.2263 22.6686 59.3053 22.746C59.3844 22.8235 59.4474 22.9158 59.4907 23.0176C59.534 23.1194 59.5569 23.2288 59.5579 23.3394V27.5134C59.5556 27.7369 59.4646 27.9502 59.305 28.1066C59.1455 28.2629 58.9303 28.3496 58.7069 28.3474ZM46.7959 26.6804H57.8559V24.1724H46.7959V26.6804Z" fill="#FF5A3C"/>
<path d="M13.6129 63.3504H2.94194C2.83136 63.3515 2.72164 63.3309 2.61903 63.2897C2.51642 63.2485 2.42293 63.1875 2.34391 63.1101C2.26488 63.0328 2.20187 62.9406 2.15846 62.8389C2.11506 62.7372 2.09211 62.628 2.09094 62.5174V27.5174C2.09211 27.4068 2.11506 27.2975 2.15846 27.1958C2.20187 27.0941 2.26488 27.002 2.34391 26.9246C2.42293 26.8473 2.51642 26.7862 2.61903 26.745C2.72164 26.7038 2.83136 26.6832 2.94194 26.6844H13.6129C13.7235 26.6832 13.8332 26.7038 13.9359 26.745C14.0385 26.7862 14.1319 26.8473 14.211 26.9246C14.29 27.002 14.353 27.0941 14.3964 27.1958C14.4398 27.2975 14.4628 27.4068 14.4639 27.5174V62.5174C14.4628 62.628 14.4398 62.7372 14.3964 62.8389C14.353 62.9406 14.29 63.0328 14.211 63.1101C14.1319 63.1875 14.0385 63.2485 13.9359 63.2897C13.8332 63.3309 13.7235 63.3515 13.6129 63.3504ZM3.79294 61.6834H12.7619V28.3474H3.79294V61.6834Z" fill="#FF5A3C"/>
<path d="M13.6129 28.3474H0.850939C0.62753 28.3496 0.412411 28.2629 0.252844 28.1066C0.0932769 27.9502 0.00231404 27.7369 -6.10352e-05 27.5134V23.3394C0.000984033 23.2288 0.0238328 23.1194 0.0671787 23.0176C0.110525 22.9158 0.173517 22.8235 0.252554 22.746C0.331591 22.6686 0.425122 22.6075 0.527798 22.5662C0.630474 22.5249 0.740281 22.5042 0.850939 22.5054H13.6129C13.7236 22.5042 13.8334 22.5249 13.9361 22.5662C14.0388 22.6075 14.1323 22.6686 14.2113 22.746C14.2904 22.8235 14.3534 22.9158 14.3967 23.0176C14.44 23.1194 14.4629 23.2288 14.4639 23.3394V27.5134C14.4616 27.7369 14.3706 27.9502 14.211 28.1066C14.0515 28.2629 13.8363 28.3496 13.6129 28.3474ZM1.70194 26.6804H12.7619V24.1724H1.70194V26.6804Z" fill="#FF5A3C"/>
<path d="M48.4969 15.4714H11.0619C10.9514 15.4726 10.8416 15.452 10.739 15.4108C10.6364 15.3696 10.5429 15.3085 10.4639 15.2312C10.3849 15.1538 10.3219 15.0617 10.2785 14.96C10.2351 14.8583 10.2121 14.749 10.2109 14.6384V10.3494C10.2133 10.126 10.3043 9.9127 10.4638 9.75633C10.6234 9.59995 10.8385 9.51329 11.0619 9.51542H48.4969C48.7203 9.51329 48.9355 9.59995 49.095 9.75633C49.2546 9.9127 49.3456 10.126 49.3479 10.3494V14.6384C49.3468 14.749 49.3238 14.8583 49.2804 14.96C49.237 15.0617 49.174 15.1538 49.095 15.2312C49.0159 15.3085 48.9225 15.3696 48.8199 15.4108C48.7172 15.452 48.6075 15.4726 48.4969 15.4714ZM11.9109 13.8044H47.6459V11.1834H11.9109V13.8044Z" fill="#FF5A3C"/>
<path d="M26.7759 6.66749H24.2999C24.1881 6.67137 24.0765 6.65267 23.972 6.61253C23.8675 6.57239 23.7722 6.51163 23.6916 6.43385C23.6111 6.35607 23.5471 6.26286 23.5033 6.1598C23.4596 6.05675 23.4371 5.94595 23.4371 5.834C23.4371 5.72204 23.4596 5.61122 23.5033 5.50816C23.5471 5.4051 23.6111 5.31192 23.6916 5.23414C23.7722 5.15636 23.8675 5.09557 23.972 5.05543C24.0765 5.01529 24.1881 4.99662 24.2999 5.0005H26.7759C26.8878 4.99662 26.9993 5.01529 27.1039 5.05543C27.2084 5.09557 27.3037 5.15636 27.3842 5.23414C27.4648 5.31192 27.5288 5.4051 27.5725 5.50816C27.6163 5.61122 27.6388 5.72204 27.6388 5.834C27.6388 5.94595 27.6163 6.05675 27.5725 6.1598C27.5288 6.26286 27.4648 6.35607 27.3842 6.43385C27.3037 6.51163 27.2084 6.57239 27.1039 6.61253C26.9993 6.65267 26.8878 6.67137 26.7759 6.66749Z" fill="#FF5A3C"/>
<path d="M43.3919 11.1884H16.1619C16.0513 11.1896 15.9415 11.169 15.8388 11.1277C15.7361 11.0864 15.6426 11.0253 15.5636 10.9478C15.4845 10.8704 15.4215 10.7781 15.3782 10.6763C15.3348 10.5745 15.312 10.4651 15.3109 10.3544V5.83644C15.3121 5.72586 15.3351 5.61658 15.3785 5.51487C15.4219 5.41317 15.4849 5.32102 15.5639 5.24366C15.6429 5.16631 15.7364 5.10529 15.839 5.06407C15.9416 5.02285 16.0514 5.00224 16.1619 5.00343H19.1909C19.3028 4.99955 19.4143 5.01825 19.5189 5.05839C19.6234 5.09853 19.7187 5.15929 19.7992 5.23707C19.8798 5.31485 19.9438 5.40806 19.9875 5.51112C20.0313 5.61418 20.0538 5.72497 20.0538 5.83693C20.0538 5.94888 20.0313 6.05967 19.9875 6.16273C19.9438 6.26579 19.8798 6.359 19.7992 6.43678C19.7187 6.51456 19.6234 6.57532 19.5189 6.61546C19.4143 6.6556 19.3028 6.6743 19.1909 6.67042H17.0159V9.52143H42.5409V6.67042H40.3619C40.2501 6.6743 40.1385 6.6556 40.034 6.61546C39.9295 6.57532 39.8342 6.51456 39.7536 6.43678C39.6731 6.359 39.6091 6.26579 39.5653 6.16273C39.5216 6.05967 39.4991 5.94888 39.4991 5.83693C39.4991 5.72497 39.5216 5.61418 39.5653 5.51112C39.6091 5.40806 39.6731 5.31485 39.7536 5.23707C39.8342 5.15929 39.9295 5.09853 40.034 5.05839C40.1385 5.01825 40.2501 4.99955 40.3619 5.00343H43.3919C43.5025 5.00224 43.6122 5.02285 43.7149 5.06407C43.8175 5.10529 43.9109 5.16631 43.99 5.24366C44.069 5.32102 44.132 5.41317 44.1754 5.51487C44.2188 5.61658 44.2418 5.72586 44.2429 5.83644V10.3544C44.2419 10.4651 44.219 10.5745 44.1757 10.6763C44.1324 10.7781 44.0694 10.8704 43.9903 10.9478C43.9113 11.0253 43.8178 11.0864 43.7151 11.1277C43.6124 11.169 43.5026 11.1896 43.3919 11.1884Z" fill="#FF5A3C"/>
<path d="M35.2619 6.66749H32.7309C32.6191 6.67137 32.5075 6.65267 32.403 6.61253C32.2985 6.57239 32.2032 6.51163 32.1226 6.43385C32.0421 6.35607 31.9781 6.26286 31.9343 6.1598C31.8906 6.05675 31.8681 5.94595 31.8681 5.834C31.8681 5.72204 31.8906 5.61122 31.9343 5.50816C31.9781 5.4051 32.0421 5.31192 32.1226 5.23414C32.2032 5.15636 32.2985 5.09557 32.403 5.05543C32.5075 5.01529 32.6191 4.99662 32.7309 5.0005H35.2619C35.3738 4.99662 35.4853 5.01529 35.5899 5.05543C35.6944 5.09557 35.7897 5.15636 35.8702 5.23414C35.9508 5.31192 36.0148 5.4051 36.0585 5.50816C36.1023 5.61122 36.1248 5.72204 36.1248 5.834C36.1248 5.94595 36.1023 6.05675 36.0585 6.1598C36.0148 6.26286 35.9508 6.35607 35.8702 6.43385C35.7897 6.51163 35.6944 6.57239 35.5899 6.61253C35.4853 6.65267 35.3738 6.67137 35.2619 6.66749Z" fill="#FF5A3C"/>
<path d="M45.9449 63.3505H13.6129C13.5024 63.3517 13.3926 63.3311 13.29 63.2898C13.1874 63.2486 13.0939 63.1876 13.0149 63.1102C12.9359 63.0329 12.8729 62.9407 12.8295 62.839C12.7861 62.7373 12.7631 62.6281 12.7619 62.5175V14.6385C12.763 14.5278 12.7858 14.4185 12.8292 14.3166C12.8725 14.2148 12.9355 14.1226 13.0146 14.0451C13.0936 13.9676 13.1871 13.9065 13.2898 13.8652C13.3925 13.8239 13.5023 13.8033 13.6129 13.8045H45.9449C46.0556 13.8033 46.1654 13.8239 46.2681 13.8652C46.3708 13.9065 46.4643 13.9676 46.5433 14.0451C46.6224 14.1226 46.6854 14.2148 46.7287 14.3166C46.772 14.4185 46.7949 14.5278 46.7959 14.6385V62.5175C46.7948 62.6281 46.7718 62.7373 46.7284 62.839C46.685 62.9407 46.622 63.0329 46.543 63.1102C46.464 63.1876 46.3705 63.2486 46.2679 63.2898C46.1652 63.3311 46.0555 63.3517 45.9449 63.3505ZM14.4619 61.6835H45.0919V15.4715H14.4619V61.6835Z" fill="#FF5A3C"/>
<path d="M40.2019 21.6714H19.3559C19.2441 21.6753 19.1325 21.6566 19.028 21.6164C18.9235 21.5763 18.8282 21.5155 18.7476 21.4378C18.6671 21.36 18.6031 21.2668 18.5593 21.1637C18.5156 21.0607 18.4931 20.9499 18.4931 20.8379C18.4931 20.7259 18.5156 20.6151 18.5593 20.5121C18.6031 20.409 18.6671 20.3158 18.7476 20.238C18.8282 20.1603 18.9235 20.0995 19.028 20.0593C19.1325 20.0192 19.2441 20.0005 19.3559 20.0044H40.2019C40.3138 20.0005 40.4253 20.0192 40.5299 20.0593C40.6344 20.0995 40.7297 20.1603 40.8102 20.238C40.8908 20.3158 40.9548 20.409 40.9985 20.5121C41.0423 20.6151 41.0648 20.7259 41.0648 20.8379C41.0648 20.9499 41.0423 21.0607 40.9985 21.1637C40.9548 21.2668 40.8908 21.36 40.8102 21.4378C40.7297 21.5155 40.6344 21.5763 40.5299 21.6164C40.4253 21.6566 40.3138 21.6753 40.2019 21.6714Z" fill="#FF5A3C"/>
<path d="M40.2019 27.8726H19.3559C19.1347 27.8726 18.9226 27.7847 18.7662 27.6283C18.6098 27.4719 18.5219 27.2598 18.5219 27.0386C18.5219 26.8174 18.6098 26.6053 18.7662 26.4489C18.9226 26.2925 19.1347 26.2046 19.3559 26.2046H40.2019C40.4231 26.2046 40.6353 26.2925 40.7917 26.4489C40.9481 26.6053 41.0359 26.8174 41.0359 27.0386C41.0359 27.2598 40.9481 27.4719 40.7917 27.6283C40.6353 27.7847 40.4231 27.8726 40.2019 27.8726Z" fill="#FF5A3C"/>
<path d="M40.2019 34.0715H19.3559C19.2441 34.0754 19.1325 34.0567 19.028 34.0166C18.9235 33.9764 18.8282 33.9157 18.7476 33.8379C18.6671 33.7601 18.6031 33.6669 18.5593 33.5639C18.5156 33.4608 18.4931 33.35 18.4931 33.238C18.4931 33.1261 18.5156 33.0153 18.5593 32.9122C18.6031 32.8092 18.6671 32.716 18.7476 32.6382C18.8282 32.5604 18.9235 32.4997 19.028 32.4595C19.1325 32.4194 19.2441 32.4007 19.3559 32.4046H40.2019C40.3138 32.4007 40.4253 32.4194 40.5299 32.4595C40.6344 32.4997 40.7297 32.5604 40.8102 32.6382C40.8908 32.716 40.9548 32.8092 40.9985 32.9122C41.0423 33.0153 41.0648 33.1261 41.0648 33.238C41.0648 33.35 41.0423 33.4608 40.9985 33.5639C40.9548 33.6669 40.8908 33.7601 40.8102 33.8379C40.7297 33.9157 40.6344 33.9764 40.5299 34.0166C40.4253 34.0567 40.3138 34.0754 40.2019 34.0715Z" fill="#FF5A3C"/>
<path d="M40.2019 40.2705H19.3559C19.2441 40.2744 19.1325 40.2557 19.028 40.2156C18.9235 40.1754 18.8282 40.1147 18.7476 40.0369C18.6671 39.9591 18.6031 39.8659 18.5593 39.7628C18.5156 39.6598 18.4931 39.549 18.4931 39.437C18.4931 39.3251 18.5156 39.2142 18.5593 39.1112C18.6031 39.0081 18.6671 38.915 18.7476 38.8372C18.8282 38.7594 18.9235 38.6986 19.028 38.6585C19.1325 38.6183 19.2441 38.5997 19.3559 38.6035H40.2019C40.3138 38.5997 40.4253 38.6183 40.5299 38.6585C40.6344 38.6986 40.7297 38.7594 40.8102 38.8372C40.8908 38.915 40.9548 39.0081 40.9985 39.1112C41.0423 39.2142 41.0648 39.3251 41.0648 39.437C41.0648 39.549 41.0423 39.6598 40.9985 39.7628C40.9548 39.8659 40.8908 39.9591 40.8102 40.0369C40.7297 40.1147 40.6344 40.1754 40.5299 40.2156C40.4253 40.2557 40.3138 40.2744 40.2019 40.2705Z" fill="#FF5A3C"/>
<path d="M37.4359 63.3505H22.1209C21.8978 63.3526 21.6829 63.2661 21.5236 63.1099C21.3642 62.9537 21.2733 62.7406 21.2709 62.5175V47.5125C21.2733 47.2894 21.3642 47.0763 21.5236 46.9201C21.6829 46.7639 21.8978 46.6774 22.1209 46.6795H37.4359C37.5465 46.6783 37.6562 46.6989 37.7589 46.7401C37.8615 46.7814 37.9549 46.8424 38.034 46.9197C38.113 46.9971 38.176 47.0893 38.2194 47.191C38.2628 47.2927 38.2858 47.4019 38.2869 47.5125V62.5175C38.2858 62.6281 38.2628 62.7373 38.2194 62.839C38.176 62.9407 38.113 63.0329 38.034 63.1102C37.9549 63.1876 37.8615 63.2486 37.7589 63.2898C37.6562 63.3311 37.5465 63.3517 37.4359 63.3505ZM22.9719 61.6835H36.5859V48.3465H22.9719V61.6835Z" fill="#FF5A3C"/>
<path d="M29.7789 63.3504C29.6684 63.3516 29.5586 63.331 29.456 63.2897C29.3534 63.2485 29.2599 63.1875 29.1809 63.1101C29.1019 63.0328 29.0389 62.9406 28.9955 62.8389C28.9521 62.7372 28.9291 62.628 28.9279 62.5174V47.5124C28.9385 47.2941 29.0327 47.0882 29.191 46.9375C29.3492 46.7867 29.5594 46.7026 29.7779 46.7026C29.9965 46.7026 30.2067 46.7867 30.3649 46.9375C30.5232 47.0882 30.6173 47.2941 30.6279 47.5124V62.5174C30.6256 62.7404 30.5348 62.9533 30.3757 63.1094C30.2165 63.2656 30.0019 63.3522 29.7789 63.3504Z" fill="#FF5A3C"/>
<path d="M50.4289 34.4385H45.9449C45.8331 34.4424 45.7215 34.4237 45.617 34.3835C45.5125 34.3434 45.4172 34.2826 45.3366 34.2048C45.2561 34.1271 45.1921 34.0339 45.1483 33.9308C45.1046 33.8277 45.0821 33.7169 45.0821 33.605C45.0821 33.493 45.1046 33.3822 45.1483 33.2792C45.1921 33.1761 45.2561 33.0829 45.3366 33.0051C45.4172 32.9274 45.5125 32.8666 45.617 32.8265C45.7215 32.7863 45.8331 32.7676 45.9449 32.7715H50.4289C50.5408 32.7676 50.6523 32.7863 50.7569 32.8265C50.8614 32.8666 50.9567 32.9274 51.0372 33.0051C51.1178 33.0829 51.1818 33.1761 51.2255 33.2792C51.2693 33.3822 51.2918 33.493 51.2918 33.605C51.2918 33.7169 51.2693 33.8277 51.2255 33.9308C51.1818 34.0339 51.1178 34.1271 51.0372 34.2048C50.9567 34.2826 50.8614 34.3434 50.7569 34.3835C50.6523 34.4237 50.5408 34.4424 50.4289 34.4385Z" fill="#FF5A3C"/>
<path d="M50.4289 40.1436H45.9449C45.8331 40.1474 45.7215 40.1288 45.617 40.0886C45.5125 40.0485 45.4172 39.9877 45.3366 39.9099C45.2561 39.8321 45.1921 39.739 45.1483 39.6359C45.1046 39.5329 45.0821 39.422 45.0821 39.3101C45.0821 39.1981 45.1046 39.0873 45.1483 38.9843C45.1921 38.8812 45.2561 38.788 45.3366 38.7102C45.4172 38.6324 45.5125 38.5717 45.617 38.5315C45.7215 38.4914 45.8331 38.4727 45.9449 38.4766H50.4289C50.5408 38.4727 50.6523 38.4914 50.7569 38.5315C50.8614 38.5717 50.9567 38.6324 51.0372 38.7102C51.1178 38.788 51.1818 38.8812 51.2255 38.9843C51.2693 39.0873 51.2918 39.1981 51.2918 39.3101C51.2918 39.422 51.2693 39.5329 51.2255 39.6359C51.1818 39.739 51.1178 39.8321 51.0372 39.9099C50.9567 39.9877 50.8614 40.0485 50.7569 40.0886C50.6523 40.1288 50.5408 40.1474 50.4289 40.1436Z" fill="#FF5A3C"/>
<path d="M50.4289 45.8455H45.9449C45.8331 45.8494 45.7215 45.8307 45.617 45.7905C45.5125 45.7504 45.4172 45.6896 45.3366 45.6118C45.2561 45.534 45.1921 45.4409 45.1483 45.3378C45.1046 45.2348 45.0821 45.1239 45.0821 45.012C45.0821 44.9 45.1046 44.7892 45.1483 44.6862C45.1921 44.5831 45.2561 44.4899 45.3366 44.4122C45.4172 44.3344 45.5125 44.2736 45.617 44.2334C45.7215 44.1933 45.8331 44.1746 45.9449 44.1785H50.4289C50.5408 44.1746 50.6523 44.1933 50.7569 44.2334C50.8614 44.2736 50.9567 44.3344 51.0372 44.4122C51.1178 44.4899 51.1818 44.5831 51.2255 44.6862C51.2693 44.7892 51.2918 44.9 51.2918 45.012C51.2918 45.1239 51.2693 45.2348 51.2255 45.3378C51.1818 45.4409 51.1178 45.534 51.0372 45.6118C50.9567 45.6896 50.8614 45.7504 50.7569 45.7905C50.6523 45.8307 50.5408 45.8494 50.4289 45.8455Z" fill="#FF5A3C"/>
<path d="M50.4289 51.5535H45.9449C45.8331 51.5574 45.7215 51.5387 45.617 51.4985C45.5125 51.4584 45.4172 51.3976 45.3366 51.3198C45.2561 51.2421 45.1921 51.1489 45.1483 51.0458C45.1046 50.9428 45.0821 50.8319 45.0821 50.72C45.0821 50.608 45.1046 50.4972 45.1483 50.3942C45.1921 50.2911 45.2561 50.1979 45.3366 50.1201C45.4172 50.0423 45.5125 49.9816 45.617 49.9414C45.7215 49.9013 45.8331 49.8826 45.9449 49.8865H50.4289C50.5408 49.8826 50.6523 49.9013 50.7569 49.9414C50.8614 49.9816 50.9567 50.0423 51.0372 50.1201C51.1178 50.1979 51.1818 50.2911 51.2255 50.3942C51.2693 50.4972 51.2918 50.608 51.2918 50.72C51.2918 50.8319 51.2693 50.9428 51.2255 51.0458C51.1818 51.1489 51.1178 51.2421 51.0372 51.3198C50.9567 51.3976 50.8614 51.4584 50.7569 51.4985C50.6523 51.5387 50.5408 51.5574 50.4289 51.5535Z" fill="#FF5A3C"/>
<path d="M50.4289 57.2586H45.9449C45.7237 57.2586 45.5116 57.1707 45.3552 57.0143C45.1988 56.8579 45.1109 56.6458 45.1109 56.4246C45.1109 56.2034 45.1988 55.9912 45.3552 55.8348C45.5116 55.6784 45.7237 55.5906 45.9449 55.5906H50.4289C50.6501 55.5906 50.8623 55.6784 51.0187 55.8348C51.1751 55.9912 51.2629 56.2034 51.2629 56.4246C51.2629 56.6458 51.1751 56.8579 51.0187 57.0143C50.8623 57.1707 50.6501 57.2586 50.4289 57.2586Z" fill="#FF5A3C"/>
<path d="M13.6129 34.4385H9.12794C9.01605 34.4424 8.90453 34.4237 8.80002 34.3835C8.69552 34.3434 8.60016 34.2826 8.51964 34.2048C8.43911 34.1271 8.37508 34.0339 8.33134 33.9308C8.2876 33.8277 8.26506 33.7169 8.26506 33.605C8.26506 33.493 8.2876 33.3822 8.33134 33.2792C8.37508 33.1761 8.43911 33.0829 8.51964 33.0051C8.60016 32.9274 8.69552 32.8666 8.80002 32.8265C8.90453 32.7863 9.01605 32.7676 9.12794 32.7715H13.6129C13.7248 32.7676 13.8363 32.7863 13.9409 32.8265C14.0454 32.8666 14.1407 32.9274 14.2212 33.0051C14.3018 33.0829 14.3658 33.1761 14.4095 33.2792C14.4533 33.3822 14.4758 33.493 14.4758 33.605C14.4758 33.7169 14.4533 33.8277 14.4095 33.9308C14.3658 34.0339 14.3018 34.1271 14.2212 34.2048C14.1407 34.2826 14.0454 34.3434 13.9409 34.3835C13.8363 34.4237 13.7248 34.4424 13.6129 34.4385Z" fill="#FF5A3C"/>
<path d="M13.6129 40.1436H9.12794C9.01605 40.1474 8.90453 40.1288 8.80002 40.0886C8.69552 40.0485 8.60016 39.9877 8.51964 39.9099C8.43911 39.8321 8.37508 39.739 8.33134 39.6359C8.2876 39.5329 8.26506 39.422 8.26506 39.3101C8.26506 39.1981 8.2876 39.0873 8.33134 38.9843C8.37508 38.8812 8.43911 38.788 8.51964 38.7102C8.60016 38.6324 8.69552 38.5717 8.80002 38.5315C8.90453 38.4914 9.01605 38.4727 9.12794 38.4766H13.6129C13.7248 38.4727 13.8363 38.4914 13.9409 38.5315C14.0454 38.5717 14.1407 38.6324 14.2212 38.7102C14.3018 38.788 14.3658 38.8812 14.4095 38.9843C14.4533 39.0873 14.4758 39.1981 14.4758 39.3101C14.4758 39.422 14.4533 39.5329 14.4095 39.6359C14.3658 39.739 14.3018 39.8321 14.2212 39.9099C14.1407 39.9877 14.0454 40.0485 13.9409 40.0886C13.8363 40.1288 13.7248 40.1474 13.6129 40.1436Z" fill="#FF5A3C"/>
<path d="M13.6129 45.8455H9.12794C9.01605 45.8494 8.90453 45.8307 8.80002 45.7905C8.69552 45.7504 8.60016 45.6896 8.51964 45.6118C8.43911 45.534 8.37508 45.4409 8.33134 45.3378C8.2876 45.2348 8.26506 45.1239 8.26506 45.012C8.26506 44.9 8.2876 44.7892 8.33134 44.6862C8.37508 44.5831 8.43911 44.4899 8.51964 44.4122C8.60016 44.3344 8.69552 44.2736 8.80002 44.2334C8.90453 44.1933 9.01605 44.1746 9.12794 44.1785H13.6129C13.7248 44.1746 13.8363 44.1933 13.9409 44.2334C14.0454 44.2736 14.1407 44.3344 14.2212 44.4122C14.3018 44.4899 14.3658 44.5831 14.4095 44.6862C14.4533 44.7892 14.4758 44.9 14.4758 45.012C14.4758 45.1239 14.4533 45.2348 14.4095 45.3378C14.3658 45.4409 14.3018 45.534 14.2212 45.6118C14.1407 45.6896 14.0454 45.7504 13.9409 45.7905C13.8363 45.8307 13.7248 45.8494 13.6129 45.8455Z" fill="#FF5A3C"/>
<path d="M13.6129 51.5535H9.12794C9.01605 51.5574 8.90453 51.5387 8.80002 51.4985C8.69552 51.4584 8.60016 51.3976 8.51964 51.3198C8.43911 51.2421 8.37508 51.1489 8.33134 51.0458C8.2876 50.9428 8.26506 50.8319 8.26506 50.72C8.26506 50.608 8.2876 50.4972 8.33134 50.3942C8.37508 50.2911 8.43911 50.1979 8.51964 50.1201C8.60016 50.0423 8.69552 49.9816 8.80002 49.9414C8.90453 49.9013 9.01605 49.8826 9.12794 49.8865H13.6129C13.7248 49.8826 13.8363 49.9013 13.9409 49.9414C14.0454 49.9816 14.1407 50.0423 14.2212 50.1201C14.3018 50.1979 14.3658 50.2911 14.4095 50.3942C14.4533 50.4972 14.4758 50.608 14.4758 50.72C14.4758 50.8319 14.4533 50.9428 14.4095 51.0458C14.3658 51.1489 14.3018 51.2421 14.2212 51.3198C14.1407 51.3976 14.0454 51.4584 13.9409 51.4985C13.8363 51.5387 13.7248 51.5574 13.6129 51.5535Z" fill="#FF5A3C"/>
<path d="M13.6129 57.2586H9.12794C8.90675 57.2586 8.69462 57.1707 8.53821 57.0143C8.3818 56.8579 8.29394 56.6458 8.29394 56.4246C8.29394 56.2034 8.3818 55.9912 8.53821 55.8348C8.69462 55.6784 8.90675 55.5906 9.12794 55.5906H13.6129C13.8341 55.5906 14.0463 55.6784 14.2027 55.8348C14.3591 55.9912 14.4469 56.2034 14.4469 56.4246C14.4469 56.6458 14.3591 56.8579 14.2027 57.0143C14.0463 57.1707 13.8341 57.2586 13.6129 57.2586Z" fill="#FF5A3C"/>
</svg>
