<svg width="134" height="2" viewBox="0 0 134 2" fill="none" xmlns="http://www.w3.org/2000/svg">
<path d="M133.412 0.999023H73.506" stroke="#FB5252"/>
<path d="M66.361 0.999023H0.350006" stroke="#FB5252"/>
<path d="M70 1.99902C70.5523 1.99902 71 1.55131 71 0.999023C71 0.446739 70.5523 -0.000976562 70 -0.000976562C69.4477 -0.000976562 69 0.446739 69 0.999023C69 1.55131 69.4477 1.99902 70 1.99902Z" fill="white"/>
<path d="M70 1.49902C70.2761 1.49902 70.5 1.27517 70.5 0.999023C70.5 0.722881 70.2761 0.499023 70 0.499023C69.7239 0.499023 69.5 0.722881 69.5 0.999023C69.5 1.27517 69.7239 1.49902 70 1.49902Z" stroke="#FB5252"/>
</svg>
