<svg width="68" height="65" viewBox="0 0 68 65" fill="none" xmlns="http://www.w3.org/2000/svg">
<path opacity="0.16" d="M54.4999 0.949219C57.17 0.949219 59.7801 1.74098 62.0001 3.22438C64.2202 4.70778 65.9505 6.81619 66.9723 9.28299C67.9941 11.7498 68.2614 14.4642 67.7405 17.0829C67.2196 19.7017 65.9339 22.1072 64.0459 23.9952C62.1579 25.8832 59.7524 27.1689 57.1337 27.6898C54.5149 28.2107 51.8005 27.9434 49.3337 26.9216C46.8669 25.8998 44.7585 24.1695 43.2751 21.9494C41.7917 19.7294 40.9999 17.1193 40.9999 14.4492C40.9999 10.8688 42.4223 7.43502 44.954 4.90328C47.4857 2.37154 50.9195 0.949219 54.4999 0.949219Z" fill="#FF5A3C"/>
<path d="M57.8529 8.00042H1.28594C0.954002 7.99181 0.632201 8.1152 0.39112 8.34353C0.150039 8.57186 0.0093599 8.88649 -6.10352e-05 9.21841L-6.10352e-05 62.8124C0.0093599 63.1444 0.150039 63.459 0.39112 63.6873C0.632201 63.9156 0.954002 64.039 1.28594 64.0304H8.99994C9.33188 64.039 9.65368 63.9156 9.89476 63.6873C10.1358 63.459 10.2765 63.1444 10.2859 62.8124V61.5944H47.5679C47.9055 61.5962 48.2308 61.4684 48.4769 61.2374L56.1909 53.9294C56.3089 53.819 56.4031 53.6858 56.4678 53.5377C56.5324 53.3897 56.5662 53.23 56.5669 53.0684V17.7454H57.8529C58.1849 17.754 58.5067 17.6306 58.7478 17.4023C58.9888 17.174 59.1295 16.8593 59.1389 16.5274V9.21841C59.1295 8.88649 58.9888 8.57186 58.7478 8.34353C58.5067 8.1152 58.1849 7.99181 57.8529 8.00042ZM7.71394 61.5944H2.57094V17.7454H7.71394V61.5944ZM7.71394 15.3094H2.57094V10.4364H7.71394V15.3094ZM53.9999 52.5634L47.0399 59.1634H46.2859V51.8504H53.9999V52.5634ZM53.9999 49.4144H44.9999C44.6679 49.4056 44.346 49.5289 44.1048 49.7573C43.8637 49.9856 43.7231 50.3004 43.7139 50.6324V59.1584H10.2849V37.2304H16.7129C16.8788 37.2399 17.0448 37.2155 17.2008 37.1586C17.3569 37.1017 17.4996 37.0135 17.6204 36.8994C17.7411 36.7854 17.8373 36.6479 17.9031 36.4954C17.9689 36.3429 18.0028 36.1785 18.0028 36.0124C18.0028 35.8463 17.9689 35.682 17.9031 35.5294C17.8373 35.3769 17.7411 35.2394 17.6204 35.1254C17.4996 35.0114 17.3569 34.9232 17.2008 34.8663C17.0448 34.8094 16.8788 34.7849 16.7129 34.7944H10.2849V17.7454H28.2849V23.8354C28.3009 24.1656 28.4433 24.477 28.6826 24.705C28.922 24.9331 29.2399 25.0603 29.5704 25.0603C29.901 25.0603 30.2189 24.9331 30.4583 24.705C30.6976 24.477 30.84 24.1656 30.8559 23.8354V17.7454H53.9999V49.4144ZM56.5709 15.3094H10.2849V10.4364H56.5669L56.5709 15.3094Z" fill="#FF5A3C"/>
<path d="M29.5689 29.9255C29.2372 29.9171 28.9156 30.0407 28.6748 30.269C28.4339 30.4973 28.2934 30.8118 28.2839 31.1435V34.7975H24.4269C24.2611 34.788 24.0951 34.8124 23.9391 34.8693C23.783 34.9263 23.6403 35.0144 23.5195 35.1285C23.3987 35.2425 23.3025 35.38 23.2368 35.5325C23.171 35.6851 23.1371 35.8494 23.1371 36.0155C23.1371 36.1816 23.171 36.3459 23.2368 36.4984C23.3025 36.651 23.3987 36.7885 23.5195 36.9025C23.6403 37.0165 23.783 37.1047 23.9391 37.1616C24.0951 37.2185 24.2611 37.243 24.4269 37.2335H29.5689C29.901 37.2424 30.2229 37.119 30.464 36.8907C30.7052 36.6623 30.8458 36.3475 30.8549 36.0155V31.1435C30.8455 30.8116 30.7048 30.4969 30.4638 30.2686C30.2227 30.0403 29.9009 29.9169 29.5689 29.9255Z" fill="#FF5A3C"/>
</svg>
