<svg width="64" height="62" viewBox="0 0 64 62" fill="none" xmlns="http://www.w3.org/2000/svg">
<path opacity="0.16" d="M47.5 4.94922C50.17 4.94922 52.7801 5.74098 55.0002 7.22438C57.2202 8.70778 58.9506 10.8162 59.9723 13.283C60.9941 15.7498 61.2615 18.4642 60.7406 21.0829C60.2197 23.7017 58.9339 26.1072 57.0459 27.9952C55.1579 29.8832 52.7524 31.1689 50.1337 31.6898C47.5149 32.2107 44.8005 31.9434 42.3337 30.9216C39.8669 29.8998 37.7585 28.1695 36.2751 25.9494C34.7917 23.7294 34 21.1193 34 18.4492C34 14.8688 35.4223 11.435 37.954 8.90328C40.4858 6.37154 43.9195 4.94922 47.5 4.94922Z" fill="#FF5A3C"/>
<path d="M61.677 49.6697V40.6387C61.668 40.0172 61.465 39.414 61.0964 38.9136C60.7278 38.4132 60.2119 38.0405 59.621 37.8477V36.6747C59.6052 35.8717 59.2717 35.1078 58.6936 34.5503C58.1155 33.9928 57.34 33.6873 56.537 33.7007H45.04C44.8176 33.1143 44.4211 32.6101 43.9038 32.2556C43.3865 31.9011 42.7731 31.7134 42.146 31.7177V19.3177C42.136 18.0795 41.7935 16.8667 41.1542 15.8062C40.5149 14.7457 39.6023 13.8766 38.512 13.2897L18.807 2.46166C18.344 1.70687 17.6946 1.08394 16.9212 0.652761C16.1478 0.221579 15.2765 -0.00332289 14.391 -0.000315054C13.059 -0.0218501 11.7723 0.483158 10.8106 1.40499C9.84891 2.32682 9.28987 3.59095 9.255 4.92266L8.255 33.7977C7.10763 33.9997 6.06646 34.5951 5.3104 35.4814C4.55434 36.3678 4.1306 37.4898 4.112 38.6547C4.11522 39.6847 4.44969 40.6864 5.066 41.5117L2.141 44.8007C0.685838 46.4193 -0.0799443 48.5421 0.00672141 50.717C0.0933872 52.8918 1.02565 54.9469 2.605 56.4447L5.69 59.4197C7.05669 60.7341 8.88185 61.4641 10.778 61.4547H21.587V59.4727H19.531V54.0407L16 51.3167C15.4759 50.9193 15.0374 50.4201 14.7109 49.8491C14.3844 49.2781 14.1766 48.647 14.1 47.9937L13.363 41.5937C14.0224 40.7547 14.3834 39.7198 14.389 38.6527C14.3822 37.9179 14.209 37.1943 13.8823 36.5361C13.5557 35.878 13.0841 35.3024 12.503 34.8527L17.282 9.04668C17.459 8.92376 17.6283 8.79016 17.789 8.64666L28.335 18.8167C27.9593 19.4165 27.7578 20.1089 27.753 20.8167C27.7668 21.7066 28.0777 22.5664 28.6363 23.2593C29.1949 23.9522 29.9692 24.4385 30.836 24.6407V31.7197H30.466C29.7647 31.7124 29.0821 31.9456 28.5318 32.3805C27.9816 32.8154 27.597 33.4257 27.442 34.1097L24.689 47.3857L24.675 49.6657C24.0249 50.2959 23.5075 51.0499 23.1534 51.8832C22.7993 52.7165 22.6155 53.6122 22.613 54.5177C22.6503 56.391 23.4288 58.1732 24.7779 59.4735C26.127 60.7738 27.9365 61.4863 29.81 61.4547H56.537C58.4113 61.4871 60.222 60.7747 61.5717 59.4739C62.9215 58.173 63.7002 56.3899 63.737 54.5157C63.7337 53.6114 63.5497 52.717 63.196 51.8848C62.8422 51.0526 62.3258 50.2995 61.677 49.6697ZM9.252 35.6827C9.65173 35.668 10.0503 35.7341 10.4239 35.8769C10.7975 36.0198 11.1385 36.2365 11.4265 36.5141C11.7145 36.7917 11.9435 37.1245 12.1 37.4927C12.2565 37.8608 12.3371 38.2567 12.3371 38.6567C12.3371 39.0567 12.2565 39.4526 12.1 39.8207C11.9435 40.1888 11.7145 40.5216 11.4265 40.7992C11.1385 41.0769 10.7975 41.2936 10.4239 41.4364C10.0503 41.5793 9.65173 41.6453 9.252 41.6307C8.85227 41.6453 8.45369 41.5793 8.08007 41.4364C7.70645 41.2936 7.36547 41.0769 7.07749 40.7992C6.78951 40.5216 6.56045 40.1888 6.404 39.8207C6.24755 39.4526 6.16691 39.0567 6.16691 38.6567C6.16691 38.2567 6.24755 37.8608 6.404 37.4927C6.56045 37.1245 6.78951 36.7917 7.07749 36.5141C7.36547 36.2365 7.70645 36.0198 8.08007 35.8769C8.45369 35.7341 8.85227 35.668 9.252 35.6827ZM14.716 52.8647L17.475 54.9917V55.5077H15.419V57.4897H17.475V59.4727H10.775C9.42046 59.4796 8.11655 58.9584 7.14 58.0197L4.055 55.0457C2.84088 53.8936 2.1244 52.3132 2.05809 50.6408C1.99178 48.9684 2.5809 47.3362 3.7 46.0917L6.569 42.8657C7.30143 43.3098 8.13298 43.5644 8.98849 43.6064C9.84401 43.6485 10.6965 43.4768 11.469 43.1067L12.057 48.2067C12.163 49.1223 12.4532 50.007 12.9102 50.8075C13.3672 51.6081 13.9814 52.3078 14.716 52.8647ZM10.6 33.8937C10.5 33.8677 10.414 33.8287 10.316 33.8087L11.181 8.78966C12.0964 9.51389 13.2288 9.9091 14.396 9.91167C14.6162 9.90424 14.8356 9.88253 15.053 9.84667L10.6 33.8937ZM14.4 7.92867C13.8166 7.90728 13.2525 7.71473 12.7777 7.37502C12.303 7.03531 11.9387 6.56344 11.7302 6.01818C11.5217 5.47292 11.4783 4.8784 11.6052 4.30861C11.7322 3.73883 12.024 3.21898 12.4443 2.81383C12.8645 2.40869 13.3947 2.13615 13.9688 2.03014C14.5428 1.92414 15.1354 1.98935 15.6726 2.21767C16.2099 2.446 16.6681 2.82734 16.9902 3.3142C17.3123 3.80106 17.484 4.37192 17.484 4.95568C17.468 5.76005 17.1331 6.52511 16.5531 7.08263C15.9731 7.64015 15.1954 7.94448 14.391 7.92867H14.4ZM45.23 39.6477H47.286V37.6657H45.23V35.6827H56.537C56.8047 35.6784 57.0632 35.7804 57.2559 35.9663C57.4486 36.1522 57.5597 36.407 57.565 36.6747V37.6657H49.341V39.6477H58.593C58.8606 39.6431 59.1192 39.7449 59.3119 39.9307C59.5046 40.1164 59.6157 40.371 59.621 40.6387V48.2547C58.6541 47.8082 57.602 47.5766 56.537 47.5757H45.23V39.6477ZM19.037 7.04168C19.3264 6.44459 19.4881 5.79375 19.512 5.13067L37.494 15.0097C38.2728 15.4278 38.925 16.0474 39.3824 16.8039C39.8398 17.5603 40.0856 18.4258 40.094 19.3097V31.7097H32.894V24.6307C33.7609 24.4285 34.5353 23.9423 35.0941 23.2494C35.6529 22.5565 35.964 21.6967 35.978 20.8067C35.9572 19.736 35.5127 18.7173 34.7418 17.974C33.9709 17.2307 32.9367 16.8235 31.866 16.8417C31.1371 16.8445 30.4217 17.0383 29.791 17.4037L19.037 7.04168ZM29.81 20.8147C29.7952 20.4049 29.9033 20.0002 30.1202 19.6523C30.3371 19.3044 30.653 19.0293 31.0274 18.8622C31.4018 18.6951 31.8176 18.6438 32.2214 18.7147C32.6252 18.7855 32.9986 18.9755 33.2937 19.2601C33.5888 19.5447 33.7921 19.911 33.8775 20.312C33.9629 20.7129 33.9266 21.1303 33.7732 21.5105C33.6198 21.8907 33.3562 22.2164 33.0164 22.4457C32.6766 22.675 32.276 22.7976 31.866 22.7977C31.3306 22.8065 30.8136 22.6027 30.4282 22.231C30.0428 21.8593 29.8205 21.35 29.81 20.8147ZM26.727 47.6757L29.46 34.4977C29.5109 34.269 29.6388 34.0647 29.8223 33.9191C30.0058 33.7734 30.2337 33.6953 30.468 33.6977H42.146C42.4136 33.6931 42.6721 33.7949 42.8649 33.9807C43.0576 34.1664 43.1687 34.4211 43.174 34.6887V47.5747H29.81C28.7453 47.5755 27.6935 47.8071 26.727 48.2537V47.6757ZM56.537 59.4757H29.81C29.1434 59.5007 28.4787 59.3911 27.8554 59.1533C27.2322 58.9155 26.6634 58.5544 26.1829 58.0917C25.7025 57.629 25.3203 57.0741 25.0593 56.4602C24.7982 55.8464 24.6637 55.1862 24.6637 54.5192C24.6637 53.8521 24.7982 53.192 25.0593 52.5781C25.3203 51.9643 25.7025 51.4094 26.1829 50.9467C26.6634 50.4839 27.2322 50.1229 27.8554 49.8851C28.4787 49.6473 29.1434 49.5376 29.81 49.5627H56.537C57.2036 49.5376 57.8683 49.6473 58.4916 49.8851C59.1148 50.1229 59.6836 50.4839 60.1641 50.9467C60.6445 51.4094 61.0267 51.9643 61.2877 52.5781C61.5488 53.192 61.6833 53.8521 61.6833 54.5192C61.6833 55.1862 61.5488 55.8464 61.2877 56.4602C61.0267 57.0741 60.6445 57.629 60.1641 58.0917C59.6836 58.5544 59.1148 58.9155 58.4916 59.1533C57.8683 59.3911 57.2036 59.5007 56.537 59.4757Z" fill="#FF5A3C"/>
<path d="M55.509 50.5547C54.9278 50.5545 54.353 50.6762 53.8217 50.912C53.2905 51.1478 52.8147 51.4925 52.425 51.9237C52.0353 51.4927 51.5595 51.1482 51.0284 50.9124C50.4973 50.6765 49.9226 50.5547 49.3415 50.5547C48.7604 50.5547 48.1857 50.6765 47.6546 50.9124C47.1235 51.1482 46.6477 51.4927 46.258 51.9237C45.8682 51.4927 45.3923 51.1481 44.8611 50.9123C44.3299 50.6765 43.7552 50.5546 43.174 50.5546C42.5928 50.5546 42.0181 50.6765 41.4869 50.9123C40.9557 51.1481 40.4798 51.4927 40.09 51.9237C39.7002 51.4927 39.2243 51.1481 38.6931 50.9123C38.1619 50.6765 37.5872 50.5546 37.006 50.5546C36.4248 50.5546 35.8501 50.6765 35.3189 50.9123C34.7877 51.1481 34.3118 51.4927 33.922 51.9237C33.5325 51.4923 33.0567 51.1475 32.5254 50.9116C31.9942 50.6758 31.4193 50.5542 30.838 50.5547C30.3055 50.5358 29.7747 50.6244 29.2772 50.8151C28.7797 51.0058 28.3257 51.2948 27.9423 51.6648C27.559 52.0348 27.254 52.4782 27.0458 52.9687C26.8375 53.4591 26.7302 53.9864 26.7302 54.5193C26.7302 55.0521 26.8375 55.5794 27.0458 56.0698C27.254 56.5602 27.559 57.0037 27.9423 57.3737C28.3257 57.7437 28.7797 58.0327 29.2772 58.2234C29.7747 58.4141 30.3055 58.5026 30.838 58.4837C31.4194 58.4842 31.9943 58.3625 32.5256 58.1265C33.0569 57.8905 33.5327 57.5455 33.922 57.1137C34.3117 57.5451 34.7875 57.8899 35.3187 58.1259C35.8499 58.3619 36.4247 58.4838 37.006 58.4838C37.5873 58.4838 38.1621 58.3619 38.6933 58.1259C39.2246 57.8899 39.7004 57.5451 40.09 57.1137C40.4797 57.5451 40.9555 57.8899 41.4867 58.1259C42.0179 58.3619 42.5927 58.4838 43.174 58.4838C43.7553 58.4838 44.3301 58.3619 44.8613 58.1259C45.3925 57.8899 45.8684 57.5451 46.258 57.1137C46.6476 57.5451 47.1233 57.8899 47.6544 58.1259C48.1856 58.3618 48.7603 58.4838 49.3415 58.4838C49.9227 58.4838 50.4975 58.3618 51.0286 58.1259C51.5597 57.8899 52.0354 57.5451 52.425 57.1137C52.8145 57.5453 53.2902 57.8903 53.8215 58.1263C54.3528 58.3623 54.9277 58.4841 55.509 58.4837C56.0415 58.5026 56.5723 58.4141 57.0698 58.2234C57.5673 58.0327 58.0213 57.7437 58.4047 57.3737C58.7881 57.0037 59.093 56.5602 59.3012 56.0698C59.5095 55.5794 59.6168 55.0521 59.6168 54.5193C59.6168 53.9864 59.5095 53.4591 59.3012 52.9687C59.093 52.4782 58.7881 52.0348 58.4047 51.6648C58.0213 51.2948 57.5673 51.0058 57.0698 50.8151C56.5723 50.6244 56.0415 50.5358 55.509 50.5547ZM30.838 56.5017C30.4489 56.4876 30.0726 56.3593 29.756 56.1329C29.4393 55.9064 29.1962 55.5918 29.0571 55.2282C28.9179 54.8646 28.8888 54.4681 28.9734 54.0881C29.058 53.708 29.2525 53.3613 29.5327 53.091C29.8129 52.8208 30.1665 52.6389 30.5493 52.5681C30.9321 52.4973 31.3273 52.5408 31.6856 52.693C32.044 52.8452 32.3496 53.0994 32.5645 53.4241C32.7793 53.7487 32.894 54.1294 32.894 54.5187C32.8827 55.0535 32.6601 55.5621 32.2748 55.9332C31.8894 56.3042 31.3729 56.5076 30.838 56.4987V56.5017ZM37.006 56.5017C36.6169 56.4876 36.2406 56.3593 35.924 56.1329C35.6073 55.9064 35.3642 55.5918 35.2251 55.2282C35.0859 54.8646 35.0568 54.4681 35.1414 54.0881C35.226 53.708 35.4205 53.3613 35.7007 53.091C35.9809 52.8208 36.3345 52.6389 36.7173 52.5681C37.1001 52.4973 37.4953 52.5408 37.8536 52.693C38.212 52.8452 38.5176 53.0994 38.7325 53.4241C38.9473 53.7487 39.0619 54.1294 39.062 54.5187C39.051 55.0536 38.8284 55.5624 38.443 55.9335C38.0577 56.3046 37.5409 56.5079 37.006 56.4987V56.5017ZM43.174 56.5017C42.7849 56.4876 42.4086 56.3593 42.092 56.1329C41.7753 55.9064 41.5322 55.5918 41.3931 55.2282C41.2539 54.8646 41.2248 54.4681 41.3094 54.0881C41.394 53.708 41.5885 53.3613 41.8687 53.091C42.1489 52.8208 42.5025 52.6389 42.8853 52.5681C43.2681 52.4973 43.6633 52.5408 44.0216 52.693C44.38 52.8452 44.6856 53.0994 44.9005 53.4241C45.1153 53.7487 45.2299 54.1294 45.23 54.5187C45.219 55.0536 44.9964 55.5624 44.611 55.9335C44.2257 56.3046 43.7089 56.5079 43.174 56.4987V56.5017ZM49.341 56.5017C48.9519 56.4876 48.5756 56.3593 48.259 56.1329C47.9423 55.9064 47.6992 55.5918 47.5601 55.2282C47.4209 54.8646 47.3918 54.4681 47.4764 54.0881C47.561 53.708 47.7555 53.3613 48.0357 53.091C48.3159 52.8208 48.6695 52.6389 49.0523 52.5681C49.4351 52.4973 49.8303 52.5408 50.1886 52.693C50.547 52.8452 50.8526 53.0994 51.0675 53.4241C51.2823 53.7487 51.3969 54.1294 51.397 54.5187C51.386 55.0536 51.1634 55.5624 50.778 55.9335C50.3927 56.3046 49.8759 56.5079 49.341 56.4987V56.5017ZM55.509 56.5017C55.1199 56.4876 54.7436 56.3593 54.427 56.1329C54.1103 55.9064 53.8672 55.5918 53.7281 55.2282C53.5889 54.8646 53.5598 54.4681 53.6444 54.0881C53.729 53.708 53.9235 53.3613 54.2037 53.091C54.4839 52.8208 54.8375 52.6389 55.2203 52.5681C55.6031 52.4973 55.9983 52.5408 56.3566 52.693C56.715 52.8452 57.0206 53.0994 57.2355 53.4241C57.4503 53.7487 57.5649 54.1294 57.565 54.5187C57.554 55.0536 57.3314 55.5624 56.946 55.9335C56.5607 56.3046 56.0439 56.5079 55.509 56.4987V56.5017Z" fill="#FF5A3C"/>
<path d="M42.146 35.6826H31.023L29.83 41.4356L29.81 43.6126H42.146V35.6826ZM40.09 41.6306H31.89L32.712 37.6656H40.09V41.6306Z" fill="#FF5A3C"/>
<path d="M57.565 41.6306H53.453V43.6126H57.565V41.6306Z" fill="#FF5A3C"/>
<path d="M51.398 41.6306H47.286V43.6126H51.398V41.6306Z" fill="#FF5A3C"/>
</svg>
