<svg width="27" height="23" viewBox="0 0 27 23" fill="none" xmlns="http://www.w3.org/2000/svg">
<path opacity="0.07" d="M24.6979 0H2.69791C1.59334 0 0.697906 0.89543 0.697906 2V21C0.697906 22.1046 1.59334 23 2.69791 23H24.6979C25.8025 23 26.6979 22.1046 26.6979 21V2C26.6979 0.89543 25.8025 0 24.6979 0Z" fill="black"/>
<path d="M12.3699 12.082L8.79292 15.364V14.201C8.78326 14.0775 8.72739 13.9623 8.63647 13.8782C8.54555 13.7941 8.42626 13.7474 8.30242 13.7474C8.17858 13.7474 8.05929 13.7941 7.96837 13.8782C7.87745 13.9623 7.82158 14.0775 7.81192 14.201V16.452C7.81763 16.5767 7.8725 16.694 7.96452 16.7784C8.05653 16.8627 8.17821 16.9072 8.30292 16.902H10.7549C10.8176 16.9079 10.8808 16.9007 10.9405 16.8808C11.0002 16.8608 11.0551 16.8286 11.1016 16.7863C11.1482 16.7439 11.1854 16.6923 11.2108 16.6347C11.2362 16.5772 11.2494 16.5149 11.2494 16.452C11.2494 16.3891 11.2362 16.3268 11.2108 16.2693C11.1854 16.2117 11.1482 16.1601 11.1016 16.1177C11.0551 16.0753 11.0002 16.0432 10.9405 16.0233C10.8808 16.0033 10.8176 15.9961 10.7549 16.002H9.48692L13.0639 12.719C13.1089 12.6791 13.1449 12.6302 13.1696 12.5753C13.1942 12.5205 13.207 12.4611 13.207 12.401C13.207 12.3409 13.1942 12.2815 13.1696 12.2267C13.1449 12.1718 13.1089 12.1229 13.0639 12.083C12.9683 11.998 12.8449 11.951 12.7169 11.951C12.589 11.951 12.4655 11.998 12.3699 12.083V12.082Z" fill="black"/>
<path d="M19.0939 6.101H16.6409C16.5783 6.09509 16.5151 6.10232 16.4554 6.12224C16.3957 6.14217 16.3408 6.17433 16.2942 6.21669C16.2477 6.25905 16.2105 6.31068 16.185 6.36824C16.1596 6.42581 16.1465 6.48804 16.1465 6.55098C16.1465 6.61392 16.1596 6.67619 16.185 6.73375C16.2105 6.79132 16.2477 6.84291 16.2942 6.88527C16.3408 6.92763 16.3957 6.95983 16.4554 6.97975C16.5151 6.99968 16.5783 7.00691 16.6409 7.00099H17.9119L14.3339 10.284C14.289 10.3239 14.253 10.3728 14.2283 10.4276C14.2036 10.4824 14.1909 10.5419 14.1909 10.602C14.1909 10.6621 14.2036 10.7215 14.2283 10.7763C14.253 10.8311 14.289 10.8801 14.3339 10.92C14.4295 11.005 14.553 11.052 14.6809 11.052C14.8089 11.052 14.9324 11.005 15.0279 10.92L18.6049 7.63799V8.80098C18.6146 8.92445 18.6705 9.03974 18.7614 9.12383C18.8523 9.20791 18.9716 9.2546 19.0954 9.2546C19.2193 9.2546 19.3386 9.20791 19.4295 9.12383C19.5204 9.03974 19.5763 8.92445 19.5859 8.80098V6.54997C19.5802 6.42519 19.5252 6.30779 19.4329 6.22359C19.3406 6.13939 19.2187 6.0953 19.0939 6.101Z" fill="black"/>
</svg>
