<svg width="16" height="16" viewBox="0 0 16 16" fill="none" xmlns="http://www.w3.org/2000/svg">
<path d="M14.6239 2.16577C14.2486 1.74114 13.7873 1.40113 13.2706 1.16824C12.7539 0.935359 12.1936 0.814941 11.6269 0.814941C11.0602 0.814941 10.4999 0.935359 9.98322 1.16824C9.46654 1.40113 9.00525 1.74114 8.62991 2.16577L8.36591 2.45477L8.10191 2.16577C7.74353 1.76035 7.30662 1.43188 6.81763 1.2002C6.32863 0.968511 5.79771 0.838438 5.25699 0.817871C4.71628 0.797304 4.17701 0.886666 3.67182 1.08054C3.16664 1.27441 2.70604 1.56875 2.31791 1.94577C2.24457 2.01644 2.17391 2.08977 2.10591 2.16577C1.31727 3.05592 0.881836 4.20403 0.881836 5.39328C0.881836 6.58253 1.31727 7.73064 2.10591 8.62079L7.97791 15.0208C8.0253 15.0732 8.08283 15.1155 8.14703 15.1451C8.21123 15.1747 8.28076 15.191 8.35142 15.1929C8.42208 15.1949 8.4924 15.1825 8.55814 15.1565C8.62388 15.1305 8.68367 15.0915 8.73391 15.0418L8.75391 15.0208L14.6239 8.62079C15.4125 7.73064 15.848 6.58253 15.848 5.39328C15.848 4.20403 15.4125 3.05592 14.6239 2.16577ZM13.8499 7.8588L8.36591 13.8408L2.88091 7.85779C2.27841 7.17763 1.94575 6.30042 1.94575 5.39178C1.94575 4.48315 2.27841 3.60594 2.88091 2.92578C3.14441 2.62512 3.46622 2.38109 3.82683 2.2085C4.18744 2.0359 4.57934 1.93834 4.97878 1.92169C5.37822 1.90505 5.77688 1.96966 6.1506 2.11166C6.52431 2.25367 6.86531 2.47007 7.15291 2.74777C7.21224 2.80444 7.26957 2.86378 7.32491 2.92578L7.97691 3.63779C8.02713 3.69021 8.08743 3.73191 8.1542 3.76041C8.22097 3.78891 8.29281 3.80362 8.36541 3.80362C8.438 3.80362 8.50985 3.78891 8.57661 3.76041C8.64338 3.73191 8.70369 3.69021 8.75391 3.63779L9.40591 2.92679C9.66941 2.62613 9.99122 2.3821 10.3518 2.2095C10.7124 2.0369 11.1043 1.93931 11.5038 1.92267C11.9032 1.90603 12.3019 1.97067 12.6756 2.11267C13.0493 2.25467 13.3903 2.47108 13.6779 2.74878C13.7372 2.80545 13.7946 2.86479 13.8499 2.92679C14.4593 3.60339 14.7965 4.48169 14.7965 5.39227C14.7965 6.30285 14.4593 7.18119 13.8499 7.85779V7.8588Z" fill="#FF5A3C"/>
</svg>
