<svg width="163" height="43" viewBox="0 0 163 43" fill="none" xmlns="http://www.w3.org/2000/svg">
<path d="M65.7359 34.6163L63.2159 31.2283C62.4693 31.3777 61.7413 31.4523 61.0319 31.4523C59.1839 31.4523 57.4853 31.023 55.9359 30.1643C54.4053 29.3057 53.1826 28.111 52.2679 26.5803C51.3719 25.031 50.9239 23.295 50.9239 21.3723C50.9239 19.4497 51.3719 17.723 52.2679 16.1923C53.1826 14.6617 54.4053 13.467 55.9359 12.6083C57.4853 11.7497 59.1839 11.3203 61.0319 11.3203C62.8799 11.3203 64.5693 11.7497 66.0999 12.6083C67.6493 13.467 68.8626 14.6617 69.7399 16.1923C70.6359 17.723 71.0839 19.4497 71.0839 21.3723C71.0839 23.0523 70.7386 24.5923 70.0479 25.9923C69.3759 27.3737 68.4333 28.5217 67.2199 29.4363L71.5319 34.6163H65.7359ZM55.8239 21.3723C55.8239 23.1083 56.2906 24.499 57.2239 25.5443C58.1759 26.571 59.4453 27.0843 61.0319 27.0843C62.5999 27.0843 63.8506 26.5617 64.7839 25.5163C65.7359 24.471 66.2119 23.0897 66.2119 21.3723C66.2119 19.6363 65.7359 18.255 64.7839 17.2283C63.8506 16.183 62.5999 15.6603 61.0319 15.6603C59.4453 15.6603 58.1759 16.1737 57.2239 17.2003C56.2906 18.227 55.8239 19.6177 55.8239 21.3723ZM89.2303 15.6323V31.2563H84.4423V29.1283C83.957 29.819 83.2943 30.379 82.4543 30.8083C81.633 31.219 80.7183 31.4243 79.7103 31.4243C78.5157 31.4243 77.461 31.163 76.5463 30.6403C75.6317 30.099 74.9223 29.3243 74.4183 28.3163C73.9143 27.3083 73.6623 26.123 73.6623 24.7603V15.6323H78.4223V24.1163C78.4223 25.1617 78.693 25.9737 79.2343 26.5523C79.7757 27.131 80.5037 27.4203 81.4183 27.4203C82.3517 27.4203 83.089 27.131 83.6303 26.5523C84.1717 25.9737 84.4423 25.1617 84.4423 24.1163V15.6323H89.2303ZM91.7175 23.4163C91.7175 21.811 92.0162 20.4017 92.6135 19.1883C93.2295 17.975 94.0602 17.0417 95.1055 16.3883C96.1509 15.735 97.3175 15.4083 98.6055 15.4083C99.7069 15.4083 100.668 15.6323 101.49 16.0803C102.33 16.5283 102.974 17.1163 103.422 17.8443V15.6323H108.21V31.2563H103.422V29.0443C102.955 29.7723 102.302 30.3603 101.462 30.8083C100.64 31.2563 99.6789 31.4803 98.5775 31.4803C97.3082 31.4803 96.1509 31.1537 95.1055 30.5003C94.0602 29.8283 93.2295 28.8857 92.6135 27.6723C92.0162 26.4403 91.7175 25.0217 91.7175 23.4163ZM103.422 23.4443C103.422 22.2497 103.086 21.307 102.414 20.6163C101.76 19.9257 100.958 19.5803 100.006 19.5803C99.0535 19.5803 98.2415 19.9257 97.5695 20.6163C96.9162 21.2883 96.5895 22.2217 96.5895 23.4163C96.5895 24.611 96.9162 25.563 97.5695 26.2723C98.2415 26.963 99.0535 27.3083 100.006 27.3083C100.958 27.3083 101.76 26.963 102.414 26.2723C103.086 25.5817 103.422 24.639 103.422 23.4443ZM116.461 18.2363C117.021 17.3777 117.721 16.7057 118.561 16.2203C119.401 15.7163 120.335 15.4643 121.361 15.4643V20.5323H120.045C118.851 20.5323 117.955 20.7937 117.357 21.3163C116.76 21.8203 116.461 22.7163 116.461 24.0043V31.2563H111.673V15.6323H116.461V18.2363ZM132.358 27.1963V31.2563H129.922C128.186 31.2563 126.833 30.8363 125.862 29.9963C124.891 29.1377 124.406 27.747 124.406 25.8243V19.6083H122.502V15.6323H124.406V11.8243H129.194V15.6323H132.33V19.6083H129.194V25.8803C129.194 26.347 129.306 26.683 129.53 26.8883C129.754 27.0937 130.127 27.1963 130.65 27.1963H132.358ZM149.753 23.1923C149.753 23.6403 149.725 24.107 149.669 24.5923H138.833C138.908 25.563 139.216 26.3097 139.757 26.8323C140.317 27.3363 140.998 27.5883 141.801 27.5883C142.996 27.5883 143.826 27.0843 144.293 26.0763H149.389C149.128 27.103 148.652 28.027 147.961 28.8483C147.289 29.6697 146.44 30.3137 145.413 30.7803C144.386 31.247 143.238 31.4803 141.969 31.4803C140.438 31.4803 139.076 31.1537 137.881 30.5003C136.686 29.847 135.753 28.9137 135.081 27.7003C134.409 26.487 134.073 25.0683 134.073 23.4443C134.073 21.8203 134.4 20.4017 135.053 19.1883C135.725 17.975 136.658 17.0417 137.853 16.3883C139.048 15.735 140.42 15.4083 141.969 15.4083C143.481 15.4083 144.825 15.7257 146.001 16.3603C147.177 16.995 148.092 17.9003 148.745 19.0763C149.417 20.2523 149.753 21.6243 149.753 23.1923ZM144.853 21.9323C144.853 21.111 144.573 20.4577 144.013 19.9723C143.453 19.487 142.753 19.2443 141.913 19.2443C141.11 19.2443 140.429 19.4777 139.869 19.9443C139.328 20.411 138.992 21.0737 138.861 21.9323H144.853ZM157.067 18.2363C157.627 17.3777 158.327 16.7057 159.167 16.2203C160.007 15.7163 160.94 15.4643 161.967 15.4643V20.5323H160.651C159.456 20.5323 158.56 20.7937 157.963 21.3163C157.366 21.8203 157.067 22.7163 157.067 24.0043V31.2563H152.279V15.6323H157.067V18.2363Z" fill="white"/>
<path d="M24.805 25.4116C24.7149 26.228 24.5015 27.0261 24.172 27.7785C23.857 28.4999 23.4215 29.1624 22.884 29.7375C22.3724 30.2858 21.7549 30.7247 21.069 31.0275C20.3954 31.3203 19.6621 31.45 18.929 31.4057C18.5554 31.3806 18.1861 31.3111 17.829 31.1987C17.4567 31.0796 17.0998 30.9167 16.766 30.7136C16.4149 30.4995 16.0886 30.2473 15.793 29.9616C15.4807 29.6579 15.2006 29.3228 14.957 28.9616C14.4366 28.1854 14.0637 27.32 13.857 26.4086C13.6369 25.4531 13.5805 24.4671 13.69 23.4926C13.7941 22.5363 14.0667 21.6059 14.495 20.7446C14.8892 19.9468 15.4417 19.2378 16.119 18.6606C16.4333 18.3974 16.7769 18.1712 17.143 17.9865C17.4919 17.8086 17.8613 17.6744 18.243 17.5866C18.6132 17.5032 18.9926 17.467 19.372 17.4787C19.7443 17.4918 20.1136 17.5497 20.472 17.6516C21.202 17.8643 21.8763 18.235 22.447 18.7375C23.0413 19.2628 23.5362 19.8908 23.908 20.5915C24.2945 21.3184 24.5663 22.1007 24.714 22.9106C24.8671 23.7352 24.8977 24.578 24.805 25.4116ZM23.891 25.2546C23.9672 24.5767 23.9246 23.8909 23.765 23.2277C23.6156 22.5991 23.3482 22.0043 22.977 21.4755C22.8039 21.2325 22.6054 21.0086 22.385 20.8076C22.1776 20.6195 21.9495 20.4557 21.705 20.3195C21.2643 20.0713 20.7696 19.9348 20.264 19.9221C19.7585 19.9093 19.2575 20.0208 18.805 20.2465C18.3614 20.4683 17.9651 20.774 17.638 21.1467C17.2998 21.5318 17.0262 21.969 16.828 22.4416C16.6215 22.9282 16.4868 23.4424 16.428 23.9677C16.3676 24.5005 16.3824 25.0389 16.472 25.5676C16.5599 26.0959 16.726 26.6082 16.965 27.0876C17.1974 27.5584 17.5097 27.9854 17.888 28.3496C18.2567 28.7046 18.6982 28.9751 19.182 29.1425C19.6685 29.3093 20.1895 29.3498 20.696 29.2597C20.9594 29.2121 21.2157 29.1314 21.459 29.0197C21.7144 28.9016 21.9548 28.753 22.175 28.5776C22.6527 28.1907 23.0433 27.7071 23.321 27.1586C23.6247 26.5637 23.8179 25.9185 23.891 25.2546Z" fill="#FF5A3C"/>
<path d="M5.87094 32.4568V14.6797L6.83694 14.6868L32.5669 14.8867L33.3899 14.8926L33.3749 15.8848L33.1199 32.4587L33.1089 33.1768L32.5669 33.1416L22.0459 32.4587L32.5669 31.7756L32.0139 32.4587L31.7589 15.8848L32.5669 16.8848L6.83694 17.0847L7.80294 15.8896V32.4636L5.87094 32.4568Z" fill="#FF5A3C"/>
<path d="M-6.10352e-05 20.0365L18.7599 2.25354L19.7119 1.35352L20.6119 2.22852L41.1949 22.2875L41.1169 22.4257L18.7929 5.44751L20.6429 5.41956L1.32294 22.2565L-6.10352e-05 20.0365Z" fill="#FF5A3C"/>
</svg>
