<svg width="27" height="23" viewBox="0 0 27 23" fill="none" xmlns="http://www.w3.org/2000/svg">
<path d="M24.6979 0H2.69791C1.59334 0 0.697906 0.89543 0.697906 2V21C0.697906 22.1046 1.59334 23 2.69791 23H24.6979C25.8025 23 26.6979 22.1046 26.6979 21V2C26.6979 0.89543 25.8025 0 24.6979 0Z" fill="#FF5A3C"/>
<path d="M19.0509 6.7C18.7629 6.33498 18.3961 6.03985 17.9778 5.83672C17.5596 5.63358 17.1009 5.52769 16.6359 5.52699C16.1012 5.54291 15.5794 5.695 15.1199 5.96886C14.6604 6.24271 14.2783 6.62928 14.0099 7.092C13.8951 7.26762 13.7909 7.44993 13.6979 7.63799C13.6049 7.44993 13.5007 7.26762 13.3859 7.092C13.1175 6.62928 12.7354 6.24271 12.2759 5.96886C11.8164 5.695 11.2946 5.54291 10.7599 5.52699C10.295 5.52769 9.83619 5.63358 9.41797 5.83672C8.99974 6.03985 8.6329 6.33498 8.3449 6.7C7.7359 7.47701 7.41282 8.4399 7.4299 9.42699C7.4624 10.6401 7.9156 11.8042 8.7119 12.72C9.69646 13.8783 10.769 14.9588 11.9199 15.952C12.4049 16.398 12.9069 16.859 13.4409 17.363L13.4569 17.378C13.5218 17.4408 13.6086 17.4759 13.6989 17.4759C13.7892 17.4759 13.876 17.4408 13.9409 17.378L13.9569 17.363C14.4909 16.863 14.9929 16.398 15.4779 15.952C16.6288 14.9588 17.7014 13.8783 18.6859 12.72C19.4822 11.8042 19.9354 10.6401 19.9679 9.42699C19.9844 8.43966 19.6606 7.47674 19.0509 6.7ZM14.9999 15.345C14.5819 15.729 14.1509 16.125 13.6999 16.55C13.2459 16.125 12.8159 15.729 12.3999 15.345C9.8479 13.004 8.1649 11.457 8.1649 9.42699C8.14891 8.6315 8.40702 7.85473 8.8959 7.22701C9.11818 6.94529 9.40134 6.71754 9.72415 6.56081C10.047 6.40408 10.4011 6.32244 10.7599 6.32201C11.1744 6.33874 11.5778 6.46045 11.9323 6.67577C12.2869 6.89108 12.5809 7.19293 12.7869 7.55299C13.0287 7.92732 13.2178 8.33312 13.3489 8.75899C13.3678 8.83757 13.4126 8.90749 13.4761 8.9575C13.5396 9.00752 13.6181 9.03474 13.6989 9.03474C13.7797 9.03474 13.8582 9.00752 13.9217 8.9575C13.9852 8.90749 14.03 8.83757 14.0489 8.75899C14.1801 8.33312 14.3692 7.92732 14.6109 7.55299C14.8169 7.19293 15.1109 6.89108 15.4655 6.67577C15.82 6.46045 16.2234 6.33874 16.6379 6.32201C16.9968 6.32244 17.3508 6.40408 17.6737 6.56081C17.9965 6.71754 18.2796 6.94529 18.5019 7.22701C18.9908 7.85473 19.2489 8.6315 19.2329 9.42699C19.2299 11.457 17.5469 13.004 14.9999 15.345Z" fill="white"/>
</svg>
