<svg width="175" height="45" viewBox="0 0 175 45" fill="none" xmlns="http://www.w3.org/2000/svg">
<path d="M70.86 36.6L68.16 32.97C67.36 33.13 66.58 33.21 65.82 33.21C63.84 33.21 62.02 32.75 60.36 31.83C58.72 30.91 57.41 29.63 56.43 27.99C55.47 26.33 54.99 24.47 54.99 22.41C54.99 20.35 55.47 18.5 56.43 16.86C57.41 15.22 58.72 13.94 60.36 13.02C62.02 12.1 63.84 11.64 65.82 11.64C67.8 11.64 69.61 12.1 71.25 13.02C72.91 13.94 74.21 15.22 75.15 16.86C76.11 18.5 76.59 20.35 76.59 22.41C76.59 24.21 76.22 25.86 75.48 27.36C74.76 28.84 73.75 30.07 72.45 31.05L77.07 36.6H70.86ZM60.24 22.41C60.24 24.27 60.74 25.76 61.74 26.88C62.76 27.98 64.12 28.53 65.82 28.53C67.5 28.53 68.84 27.97 69.84 26.85C70.86 25.73 71.37 24.25 71.37 22.41C71.37 20.55 70.86 19.07 69.84 17.97C68.84 16.85 67.5 16.29 65.82 16.29C64.12 16.29 62.76 16.84 61.74 17.94C60.74 19.04 60.24 20.53 60.24 22.41ZM96.0326 16.26V33H90.9026V30.72C90.3826 31.46 89.6726 32.06 88.7726 32.52C87.8926 32.96 86.9126 33.18 85.8326 33.18C84.5526 33.18 83.4226 32.9 82.4426 32.34C81.4626 31.76 80.7026 30.93 80.1626 29.85C79.6226 28.77 79.3526 27.5 79.3526 26.04V16.26H84.4526V25.35C84.4526 26.47 84.7426 27.34 85.3226 27.96C85.9026 28.58 86.6826 28.89 87.6626 28.89C88.6626 28.89 89.4526 28.58 90.0326 27.96C90.6126 27.34 90.9026 26.47 90.9026 25.35V16.26H96.0326ZM98.6974 24.6C98.6974 22.88 99.0174 21.37 99.6574 20.07C100.317 18.77 101.207 17.77 102.327 17.07C103.447 16.37 104.697 16.02 106.077 16.02C107.257 16.02 108.287 16.26 109.167 16.74C110.067 17.22 110.757 17.85 111.237 18.63V16.26H116.367V33H111.237V30.63C110.737 31.41 110.037 32.04 109.137 32.52C108.257 33 107.227 33.24 106.047 33.24C104.687 33.24 103.447 32.89 102.327 32.19C101.207 31.47 100.317 30.46 99.6574 29.16C99.0174 27.84 98.6974 26.32 98.6974 24.6ZM111.237 24.63C111.237 23.35 110.877 22.34 110.157 21.6C109.457 20.86 108.597 20.49 107.577 20.49C106.557 20.49 105.687 20.86 104.967 21.6C104.267 22.32 103.917 23.32 103.917 24.6C103.917 25.88 104.267 26.9 104.967 27.66C105.687 28.4 106.557 28.77 107.577 28.77C108.597 28.77 109.457 28.4 110.157 27.66C110.877 26.92 111.237 25.91 111.237 24.63ZM125.209 19.05C125.809 18.13 126.559 17.41 127.459 16.89C128.359 16.35 129.359 16.08 130.459 16.08V21.51H129.049C127.769 21.51 126.809 21.79 126.169 22.35C125.529 22.89 125.209 23.85 125.209 25.23V33H120.079V16.26H125.209V19.05ZM142.241 28.65V33H139.631C137.771 33 136.321 32.55 135.281 31.65C134.241 30.73 133.721 29.24 133.721 27.18V20.52H131.681V16.26H133.721V12.18H138.851V16.26H142.211V20.52H138.851V27.24C138.851 27.74 138.971 28.1 139.211 28.32C139.451 28.54 139.851 28.65 140.411 28.65H142.241ZM160.878 24.36C160.878 24.84 160.848 25.34 160.788 25.86H149.178C149.258 26.9 149.588 27.7 150.168 28.26C150.768 28.8 151.498 29.07 152.358 29.07C153.638 29.07 154.528 28.53 155.028 27.45H160.488C160.208 28.55 159.698 29.54 158.958 30.42C158.238 31.3 157.328 31.99 156.228 32.49C155.128 32.99 153.898 33.24 152.538 33.24C150.898 33.24 149.438 32.89 148.158 32.19C146.878 31.49 145.878 30.49 145.158 29.19C144.438 27.89 144.078 26.37 144.078 24.63C144.078 22.89 144.428 21.37 145.128 20.07C145.848 18.77 146.848 17.77 148.128 17.07C149.408 16.37 150.878 16.02 152.538 16.02C154.158 16.02 155.598 16.36 156.858 17.04C158.118 17.72 159.098 18.69 159.798 19.95C160.518 21.21 160.878 22.68 160.878 24.36ZM155.628 23.01C155.628 22.13 155.328 21.43 154.728 20.91C154.128 20.39 153.378 20.13 152.478 20.13C151.618 20.13 150.888 20.38 150.288 20.88C149.708 21.38 149.348 22.09 149.208 23.01H155.628ZM168.715 19.05C169.315 18.13 170.065 17.41 170.965 16.89C171.865 16.35 172.865 16.08 173.965 16.08V21.51H172.555C171.275 21.51 170.315 21.79 169.675 22.35C169.035 22.89 168.715 23.85 168.715 25.23V33H163.585V16.26H168.715V19.05Z" fill="#0A2C3D"/>
<path d="M27.58 28.2608C27.4812 29.1582 27.2451 30.0352 26.88 30.8609C26.5287 31.6554 26.044 32.384 25.447 33.015C24.877 33.619 24.1905 34.1013 23.429 34.4329C22.2903 34.9251 21.0128 34.9918 19.829 34.6209C19.4158 34.4902 19.0194 34.3113 18.648 34.088C18.258 33.8526 17.8948 33.5751 17.565 33.2608C17.2185 32.9291 16.9072 32.5625 16.636 32.1668C16.0573 31.3152 15.6419 30.3634 15.411 29.3599C15.1652 28.3103 15.1023 27.226 15.225 26.1549C15.3426 25.102 15.6474 24.0786 16.125 23.1329C16.5645 22.2544 17.1791 21.475 17.931 20.8429C18.2807 20.5523 18.6629 20.3033 19.07 20.1009C19.4592 19.907 19.8706 19.7612 20.295 19.6668C20.7071 19.5751 21.1291 19.5356 21.551 19.5489C21.9661 19.5623 22.3781 19.6257 22.778 19.7379C23.5898 19.9703 24.3408 20.378 24.978 20.932C25.638 21.5076 26.1883 22.1979 26.602 22.9698C27.0333 23.768 27.337 24.6287 27.502 25.5208C27.664 26.4252 27.6903 27.3487 27.58 28.2608ZM26.564 28.088C26.6486 27.3429 26.6015 26.5887 26.425 25.8599C26.2582 25.1676 25.9605 24.5135 25.548 23.9329C25.3553 23.6657 25.1347 23.4195 24.89 23.1988C24.6592 22.9915 24.4052 22.8118 24.133 22.6629C23.6419 22.3891 23.0916 22.2388 22.5295 22.2247C21.9674 22.2106 21.4103 22.3331 20.906 22.5819C20.4128 22.8256 19.9713 23.1624 19.606 23.5738C19.2316 23.9971 18.9277 24.478 18.706 24.9979C18.4784 25.5328 18.3302 26.0981 18.266 26.6759C18.1992 27.2619 18.2157 27.8545 18.315 28.4359C18.4133 29.0171 18.598 29.5805 18.863 30.107C19.1224 30.6254 19.4699 31.0947 19.89 31.494C20.3013 31.885 20.7922 32.1828 21.329 32.367C21.8705 32.5496 22.4491 32.5936 23.012 32.495C23.3045 32.4424 23.5894 32.3538 23.86 32.231C24.1452 32.1017 24.4138 31.9385 24.66 31.745C25.1903 31.3206 25.6246 30.7885 25.934 30.1839C26.2711 29.5281 26.4846 28.8159 26.564 28.0828V28.088Z" fill="#FF5A3C"/>
<path d="M6.52899 36.0007V16.4609L7.60399 16.4688L36.213 16.6848L37.128 16.6919L37.111 17.783L36.827 36.0049L36.815 36.7949L36.215 36.7559L24.515 36.0049L36.215 35.2539L35.601 36.0049L35.317 17.783L36.217 18.8828L7.60799 19.0989L8.68299 17.7859V36.0078L6.52899 36.0007Z" fill="#FF5A3C"/>
<path d="M0 22.3417L20.862 2.79578L21.921 1.80371L22.921 2.76477L45.807 24.8177L45.72 24.9696L20.899 6.30469L22.956 6.27368L1.473 24.7867L0 22.3417Z" fill="#FF5A3C"/>
</svg>
