<svg width="48" height="46" viewBox="0 0 48 46" fill="none" xmlns="http://www.w3.org/2000/svg">
<path d="M39.968 26.906V19.042C39.968 15.954 29.919 15.131 23.981 15.131C18.043 15.131 7.99399 15.954 7.99399 19.042V26.906C5.83294 27.0793 3.81473 28.0542 2.33565 29.6393C0.856579 31.2243 0.0234984 33.3051 -5.72205e-06 35.473C0.0044342 35.8887 0.0907443 36.2994 0.253992 36.6817C0.41724 37.064 0.654225 37.4104 0.951404 37.701C1.24858 37.9917 1.60013 38.221 1.98595 38.3758C2.37178 38.5305 2.78432 38.6077 3.19999 38.603V43.297C3.20339 43.6087 3.26817 43.9167 3.39064 44.2034C3.5131 44.49 3.69085 44.7498 3.91373 44.9677C4.1366 45.1857 4.40024 45.3576 4.68958 45.4736C4.97892 45.5897 5.28828 45.6475 5.59999 45.644H7.19999C7.80188 45.6469 8.38249 45.4215 8.82474 45.0132C9.26698 44.605 9.53795 44.0442 9.58299 43.444C10.355 42.726 15.793 41.727 23.983 41.727C32.173 41.727 37.615 42.727 38.383 43.442C38.4278 44.0422 38.6987 44.6032 39.141 45.0115C39.5833 45.4199 40.164 45.6452 40.766 45.642H42.366C42.6777 45.6455 42.9871 45.5877 43.2764 45.4716C43.5657 45.3556 43.8294 45.1837 44.0523 44.9657C44.2751 44.7477 44.4529 44.488 44.5754 44.2014C44.6978 43.9147 44.7626 43.6067 44.766 43.295V38.603C45.1817 38.6077 45.5942 38.5305 45.98 38.3758C46.3659 38.221 46.7174 37.9917 47.0146 37.701C47.3118 37.4104 47.5487 37.064 47.712 36.6817C47.8752 36.2994 47.9616 35.8887 47.966 35.473C47.9422 33.3053 47.109 31.2248 45.63 29.6399C44.1509 28.055 42.1329 27.0802 39.972 26.907L39.968 26.906ZM23.981 16.696C32.845 16.696 38.041 18.23 38.369 19.06V26.867H36.623C36.7174 26.6169 36.7671 26.3522 36.77 26.085V22.173C36.7666 21.8613 36.7018 21.5533 36.5794 21.2666C36.4569 20.9799 36.2791 20.7202 36.0563 20.5022C35.8334 20.2843 35.5697 20.1124 35.2804 19.9963C34.9911 19.8803 34.6817 19.8224 34.37 19.826H27.179C26.5495 19.8191 25.9431 20.0624 25.493 20.5025C25.0429 20.9427 24.7861 21.5435 24.779 22.173V26.085C24.7819 26.3522 24.8316 26.6169 24.926 26.867H23.034C23.1284 26.6169 23.1781 26.3522 23.181 26.085V22.173C23.1739 21.5435 22.917 20.9427 22.467 20.5025C22.0169 20.0624 21.4105 19.8191 20.781 19.826H13.589C13.2773 19.8224 12.9679 19.8803 12.6786 19.9963C12.3892 20.1124 12.1256 20.2843 11.9027 20.5022C11.6798 20.7202 11.5021 20.9799 11.3796 21.2666C11.2572 21.5533 11.1924 21.8613 11.189 22.173V26.085C11.1919 26.3522 11.2416 26.6169 11.336 26.867H9.59199V19.067C9.88299 18.241 15.087 16.696 23.981 16.696ZM26.381 26.084V22.172C26.3834 21.9621 26.469 21.7617 26.619 21.6149C26.769 21.4681 26.9711 21.3868 27.181 21.389H34.375C34.5849 21.3868 34.787 21.4681 34.937 21.6149C35.087 21.7617 35.1726 21.9621 35.175 22.172V26.084C35.1724 26.2937 35.0867 26.4938 34.9367 26.6404C34.7867 26.787 34.5847 26.8681 34.375 26.866H27.179C26.9693 26.8681 26.7673 26.787 26.6173 26.6404C26.4673 26.4938 26.3816 26.2937 26.379 26.084H26.381ZM12.791 26.084V22.172C12.7934 21.9621 12.879 21.7617 13.029 21.6149C13.179 21.4681 13.3811 21.3868 13.591 21.389H20.785C20.9949 21.3868 21.197 21.4681 21.347 21.6149C21.497 21.7617 21.5826 21.9621 21.585 22.172V26.084C21.5824 26.2937 21.4967 26.4938 21.3467 26.6404C21.1967 26.787 20.9947 26.8681 20.785 26.866H13.589C13.3793 26.8681 13.1773 26.787 13.0273 26.6404C12.8773 26.4938 12.7916 26.2937 12.789 26.084H12.791ZM7.19099 44.078H5.59999C5.49603 44.0792 5.39286 44.0598 5.29637 44.0211C5.19988 43.9824 5.11197 43.9251 5.03767 43.8524C4.96337 43.7796 4.90413 43.6929 4.86335 43.5973C4.82257 43.5017 4.80104 43.3989 4.79999 43.295V38.603H7.99999V43.297C7.99883 43.4014 7.977 43.5045 7.93579 43.6004C7.89457 43.6963 7.83478 43.7831 7.75985 43.8558C7.68492 43.9285 7.59635 43.9857 7.49923 44.024C7.40211 44.0623 7.29837 44.081 7.19399 44.079L7.19099 44.078ZM9.59099 41.7469V38.603H38.369V41.748C34.752 40.262 26.079 40.168 23.981 40.168C21.883 40.168 13.21 40.262 9.59199 41.748L9.59099 41.7469ZM43.164 43.296C43.163 43.3999 43.1414 43.5027 43.1006 43.5983C43.0599 43.694 43.0006 43.7806 42.9263 43.8533C42.852 43.9261 42.7641 43.9834 42.6676 44.0222C42.5711 44.0609 42.468 44.0802 42.364 44.079H40.764C40.66 44.0802 40.5569 44.0609 40.4604 44.0222C40.3639 43.9834 40.276 43.9261 40.2017 43.8533C40.1274 43.7806 40.0681 43.694 40.0273 43.5983C39.9866 43.5027 39.965 43.3999 39.964 43.296V38.603H43.164V43.296ZM44.764 37.038H3.19999C2.99216 37.0403 2.78589 37.0018 2.59297 36.9244C2.40006 36.847 2.22429 36.7324 2.0757 36.587C1.92711 36.4417 1.80862 36.2685 1.72699 36.0773C1.64537 35.8862 1.60221 35.6808 1.59999 35.473C1.62268 33.5861 2.39277 31.7852 3.74138 30.4652C5.08999 29.1453 6.90703 28.4141 8.79399 28.432H39.168C41.055 28.4141 42.872 29.1453 44.2206 30.4652C45.5692 31.7852 46.3393 33.5861 46.362 35.473C46.3598 35.6807 46.3167 35.886 46.2351 36.0771C46.1535 36.2682 46.0351 36.4413 45.8866 36.5867C45.7382 36.732 45.5625 36.8466 45.3697 36.9241C45.1769 37.0015 44.9718 37.0402 44.764 37.038Z" fill="#FF5A3C"/>
<path d="M7.05096 30.1186C5.82075 30.2881 4.69289 30.8955 3.87432 31.8293C3.05575 32.7632 2.60135 33.9609 2.59448 35.2027C2.57401 35.4039 2.6305 35.6054 2.75258 35.7666C2.87466 35.9278 3.05327 36.0368 3.25246 36.0716C3.29119 36.0754 3.33018 36.0757 3.36896 36.0724C3.54515 36.0484 3.70677 35.9616 3.82415 35.8281C3.94152 35.6945 4.00678 35.523 4.00795 35.3452C4.01243 34.4581 4.3367 33.6023 4.92123 32.935C5.50576 32.2677 6.31135 31.8335 7.19016 31.7122C7.37973 31.6682 7.54705 31.5573 7.66137 31.3998C7.77568 31.2423 7.8293 31.0488 7.81236 30.855C7.79543 30.6611 7.70908 30.4799 7.5692 30.3446C7.42931 30.2093 7.24529 30.1291 7.05096 30.1186Z" fill="#FF5A3C"/>
<path d="M10.282 31.897C10.8343 31.897 11.282 31.4493 11.282 30.897C11.282 30.3447 10.8343 29.897 10.282 29.897C9.72971 29.897 9.28199 30.3447 9.28199 30.897C9.28199 31.4493 9.72971 31.897 10.282 31.897Z" fill="#FF5A3C"/>
<path d="M31.3 11.535C31.4593 11.5359 31.6172 11.5054 31.7647 11.4453C31.9122 11.3852 32.0465 11.2966 32.1598 11.1846C32.2731 11.0726 32.3632 10.9395 32.425 10.7926C32.4868 10.6458 32.5191 10.4883 32.52 10.329V2.55197C32.5191 2.29532 32.4363 2.04564 32.2839 1.8392C32.1314 1.63276 31.917 1.4803 31.672 1.40396C31.4265 1.32537 31.1625 1.32626 30.9176 1.40652C30.6727 1.48679 30.4593 1.64232 30.308 1.85095L28.918 3.77496L27.484 1.28796C27.376 1.1031 27.2214 0.949767 27.0357 0.843201C26.85 0.736634 26.6396 0.680542 26.4255 0.680542C26.2114 0.680542 26.001 0.736634 25.8153 0.843201C25.6296 0.949767 25.475 1.1031 25.367 1.28796L23.984 3.67596L22.603 1.28796C22.495 1.1031 22.3404 0.949767 22.1547 0.843201C21.969 0.736634 21.7586 0.680542 21.5445 0.680542C21.3304 0.680542 21.12 0.736634 20.9343 0.843201C20.7486 0.949767 20.594 1.1031 20.486 1.28796L19.044 3.77597L17.655 1.85196C17.5034 1.64337 17.2899 1.4879 17.0448 1.40765C16.7997 1.3274 16.5356 1.32646 16.29 1.40497C16.045 1.4813 15.8306 1.63377 15.6781 1.84021C15.5256 2.04665 15.4429 2.29633 15.442 2.55298V10.33C15.4441 10.6516 15.5738 10.9592 15.8025 11.1853C16.0312 11.4114 16.3404 11.5375 16.662 11.5359L31.3 11.535ZM16.662 2.54996L18.606 5.23895C18.6643 5.32327 18.7435 5.39097 18.836 5.43533C18.9284 5.4797 19.0307 5.49922 19.133 5.49197C19.2348 5.48769 19.3338 5.45798 19.4212 5.40558C19.5085 5.35318 19.5813 5.27973 19.633 5.19196L21.543 1.89197L23.454 5.19696C23.5122 5.28379 23.591 5.35494 23.6832 5.40414C23.7755 5.45335 23.8784 5.4791 23.983 5.4791C24.0876 5.4791 24.1905 5.45335 24.2828 5.40414C24.375 5.35494 24.4537 5.28379 24.512 5.19696L26.423 1.89197L28.333 5.19696C28.3846 5.28479 28.4574 5.35829 28.5448 5.41071C28.6321 5.46312 28.7312 5.49278 28.833 5.49698C28.935 5.50335 29.037 5.48353 29.1292 5.43942C29.2215 5.39532 29.3009 5.32839 29.36 5.24496L31.304 2.55698V10.334H16.662V2.54996Z" fill="#FF5A3C"/>
<path d="M22.563 7.57993C22.8999 7.57993 23.173 7.3225 23.173 7.00493C23.173 6.68737 22.8999 6.42993 22.563 6.42993C22.2261 6.42993 21.953 6.68737 21.953 7.00493C21.953 7.3225 22.2261 7.57993 22.563 7.57993Z" fill="#FF5A3C"/>
<path d="M18.728 7.57993C19.0649 7.57993 19.338 7.3225 19.338 7.00493C19.338 6.68737 19.0649 6.42993 18.728 6.42993C18.3911 6.42993 18.118 6.68737 18.118 7.00493C18.118 7.3225 18.3911 7.57993 18.728 7.57993Z" fill="#FF5A3C"/>
<path d="M29.234 7.57993C29.5709 7.57993 29.844 7.3225 29.844 7.00493C29.844 6.68737 29.5709 6.42993 29.234 6.42993C28.8971 6.42993 28.624 6.68737 28.624 7.00493C28.624 7.3225 28.8971 7.57993 29.234 7.57993Z" fill="#FF5A3C"/>
<path d="M25.398 7.57993C25.7349 7.57993 26.008 7.3225 26.008 7.00493C26.008 6.68737 25.7349 6.42993 25.398 6.42993C25.0611 6.42993 24.788 6.68737 24.788 7.00493C24.788 7.3225 25.0611 7.57993 25.398 7.57993Z" fill="#FF5A3C"/>
</svg>
