<svg width="38" height="38" viewBox="0 0 38 38" fill="none" xmlns="http://www.w3.org/2000/svg">
<path d="M19.992 0.893774H11.665C11.5004 0.88838 11.3405 0.948558 11.2203 1.06107C11.1001 1.17358 11.0295 1.32923 11.024 1.49378V5.70478H1.41599C1.25158 5.69992 1.09192 5.76028 0.971838 5.87269C0.851754 5.98509 0.780994 6.14041 0.774994 6.30478L0.774994 36.3878C0.780735 36.5523 0.851415 36.7077 0.971558 36.8202C1.0917 36.9327 1.25151 36.9929 1.41599 36.9878H19.992C20.1565 36.9932 20.3165 36.933 20.4367 36.8205C20.5569 36.708 20.6275 36.5523 20.633 36.3878V1.4878C20.626 1.32431 20.5547 1.17016 20.4347 1.05894C20.3146 0.947705 20.1555 0.888353 19.992 0.893774ZM19.351 32.1798H12.306V30.9728H19.352L19.351 32.1798ZM2.05099 9.9188H11.025V27.9728H2.05599L2.05099 9.9188ZM19.351 7.51078H12.306V5.70579H19.352L19.351 7.51078ZM2.05599 29.1728H11.025V30.9728H2.05599V29.1728ZM12.306 29.7728V8.71479H19.352V29.7728H12.306ZM19.352 2.09577V4.50278H12.306V2.09577H19.352ZM11.025 6.9098V8.71479H2.05599V6.9098H11.025ZM2.05599 32.1798H11.025V35.7898H2.05599V32.1798ZM12.306 35.7898V33.3838H19.352V35.7898H12.306Z" fill="#FF5A3C"/>
<path d="M37.8422 33.2663L30.0285 5.14661C29.9872 4.99234 29.8875 4.86022 29.7505 4.77827C29.6856 4.73994 29.6132 4.71583 29.5383 4.7076C29.4633 4.69936 29.3874 4.70715 29.3157 4.73047L20.8767 7.49569C20.729 7.55181 20.6082 7.66206 20.5389 7.804C20.4696 7.94595 20.4568 8.10897 20.5034 8.25994L28.3171 36.3796C28.3587 36.5337 28.4583 36.6657 28.595 36.748C28.66 36.7864 28.7323 36.8104 28.8073 36.8185C28.8823 36.8266 28.9582 36.8185 29.0298 36.7947L37.4689 34.0305C37.6162 33.974 37.7367 33.8637 37.806 33.7219C37.8753 33.5801 37.8882 33.4173 37.8422 33.2663ZM22.789 12.2328L30.1423 9.82468L30.448 10.9262L23.0958 13.3373L22.789 12.2328ZM30.7766 12.111L34.5538 25.7117L27.2045 28.1207L23.4273 14.5199L30.7766 12.111ZM34.8853 26.8944L35.5525 29.2926L28.1992 31.7007L27.535 29.3024L34.8853 26.8944ZM29.1044 6.09219L29.8129 8.64393L22.4605 11.05L21.752 8.49925L29.1044 6.09219ZM29.2323 35.4383L28.5238 32.8866L35.8761 30.4785L36.5846 33.0293L29.2323 35.4383Z" fill="#FF5A3C"/>
<path d="M8.17499 12.085H3.61999C3.47839 12.0764 3.33915 12.1242 3.23259 12.2178C3.12603 12.3115 3.06076 12.4434 3.05099 12.585V16.5949C3.06101 16.7364 3.12635 16.8682 3.23286 16.9618C3.33936 17.0553 3.47845 17.1032 3.61999 17.0949H8.17499C8.31654 17.1032 8.45563 17.0553 8.56213 16.9618C8.66864 16.8682 8.73398 16.7364 8.74399 16.5949V12.585C8.73423 12.4434 8.66896 12.3115 8.5624 12.2178C8.45584 12.1242 8.3166 12.0764 8.17499 12.085ZM7.60599 16.0949H4.18899V13.0869H7.60299L7.60599 16.0949Z" fill="#FF5A3C"/>
</svg>
