<svg width="47" height="51" viewBox="0 0 47 51" fill="none" xmlns="http://www.w3.org/2000/svg">
<path d="M18.762 24.0321C18.7518 23.4527 18.5706 22.8893 18.2413 22.4125C17.912 21.9358 17.4492 21.5669 16.9109 21.3523C16.3727 21.1377 15.7831 21.0868 15.2161 21.2061C14.649 21.3253 14.1299 21.6095 13.7238 22.0228C13.3176 22.4361 13.0426 22.9601 12.9333 23.5291C12.824 24.0982 12.8852 24.6869 13.1092 25.2212C13.3333 25.7556 13.7102 26.2119 14.1926 26.5328C14.6751 26.8537 15.2416 27.025 15.821 27.0251C16.6076 27.0171 17.3589 26.6976 17.9103 26.1365C18.4616 25.5755 18.7679 24.8187 18.762 24.0321ZM13.979 24.0321C13.9855 23.669 14.0992 23.3159 14.3056 23.0172C14.5121 22.7185 14.8022 22.4874 15.1395 22.353C15.4769 22.2186 15.8464 22.1868 16.2018 22.2617C16.5571 22.3365 16.8824 22.5147 17.1368 22.7738C17.3912 23.033 17.5634 23.3614 17.6318 23.7181C17.7001 24.0747 17.6616 24.4436 17.5211 24.7784C17.3805 25.1133 17.1442 25.3991 16.8417 25.6001C16.5393 25.8011 16.1842 25.9082 15.821 25.9081C15.3285 25.9025 14.8583 25.702 14.5134 25.3503C14.1685 24.9987 13.977 24.5246 13.981 24.0321H13.979Z" fill="#FF5A3C"/>
<path d="M16.777 10.389C16.9253 10.389 17.0675 10.3301 17.1723 10.2253C17.2771 10.1204 17.336 9.97827 17.336 9.83002C17.336 9.68176 17.2771 9.53956 17.1723 9.43472C17.0675 9.32989 16.9253 9.271 16.777 9.271H15.193C15.0448 9.271 14.9026 9.32989 14.7978 9.43472C14.6929 9.53956 14.634 9.68176 14.634 9.83002C14.634 9.97827 14.6929 10.1204 14.7978 10.2253C14.9026 10.3301 15.0448 10.389 15.193 10.389H16.777Z" fill="#FF5A3C"/>
<path d="M46.314 48.599H41.055C41.2126 48.4227 41.3526 48.2315 41.473 48.028C41.9638 47.1969 42.1228 46.2112 41.918 45.268C41.819 44.7788 41.6206 44.3151 41.3351 43.9057C41.0495 43.4963 40.6829 43.1499 40.258 42.888L37.136 40.795L40.397 38.61C41.1834 38.0757 41.7293 37.2548 41.918 36.323C42.1228 35.3795 41.9639 34.3935 41.473 33.562C40.798 32.425 40.001 32.249 37.137 30.233L40.397 28.048C41.179 27.4966 41.7241 26.6705 41.9236 25.7347C42.123 24.799 41.9621 23.8224 41.473 23C41.1705 22.4739 40.7329 22.0381 40.2055 21.7378C39.678 21.4375 39.0799 21.2836 38.473 21.292H32.843C32.6571 21.3039 32.4827 21.3862 32.3553 21.5221C32.2278 21.6579 32.1569 21.8372 32.1569 22.0235C32.1569 22.2098 32.2278 22.3891 32.3553 22.525C32.4827 22.6609 32.6571 22.7431 32.843 22.755H35.382L30.8 25.826H26.668V22.754H30.09C30.2759 22.7421 30.4503 22.6599 30.5778 22.524C30.7052 22.3881 30.7762 22.2088 30.7762 22.0225C30.7762 21.8362 30.7052 21.6569 30.5778 21.5211C30.4503 21.3852 30.2759 21.3029 30.09 21.291H26.6C26.4944 20.7864 26.2212 20.3325 25.8249 20.0028C25.4286 19.6731 24.9324 19.4871 24.417 19.475H23.93V13.741H26.512C26.6574 13.7385 26.7984 13.6902 26.9147 13.6029C27.0311 13.5157 27.1169 13.3939 27.16 13.255C27.2083 13.1138 27.214 12.9615 27.1763 12.8171C27.1386 12.6727 27.0592 12.5426 26.948 12.443L16.788 3.57602V0.820038C16.7931 0.726434 16.779 0.632781 16.7466 0.5448C16.7143 0.456818 16.6644 0.376333 16.5999 0.308289C16.5354 0.240245 16.4578 0.186052 16.3716 0.149017C16.2855 0.111982 16.1928 0.0928955 16.099 0.0928955C16.0053 0.0928955 15.9125 0.111982 15.8264 0.149017C15.7403 0.186052 15.6626 0.240245 15.5982 0.308289C15.5337 0.376333 15.4838 0.456818 15.4514 0.5448C15.4191 0.632781 15.405 0.726434 15.41 0.820038V3.57602L11.219 7.24103C11.0763 7.36916 10.9869 7.54616 10.9683 7.73706C10.9498 7.92796 11.0036 8.11887 11.119 8.27203C11.1737 8.34553 11.243 8.40684 11.3227 8.45212C11.4023 8.49739 11.4904 8.52563 11.5815 8.53503C11.6727 8.54444 11.7647 8.53481 11.8519 8.50674C11.9391 8.47868 12.0195 8.43282 12.088 8.37204L16.095 4.87204L24.585 12.28H7.61103L9.95503 10.235C10.0979 10.1072 10.1874 9.93033 10.206 9.73953C10.2245 9.54874 10.1706 9.35794 10.055 9.20502C10.0004 9.13153 9.93102 9.07021 9.8514 9.02493C9.77178 8.97966 9.68362 8.95142 9.59251 8.94202C9.5014 8.93261 9.40933 8.94224 9.32215 8.97031C9.23496 8.99837 9.15455 9.04426 9.08603 9.10504L5.25003 12.447C5.13926 12.5469 5.06023 12.677 5.02272 12.8214C4.98521 12.9657 4.99088 13.1179 5.03903 13.259C5.08242 13.3978 5.16834 13.5194 5.28463 13.6066C5.40092 13.6938 5.5417 13.7422 5.68703 13.745H8.26903V16.483V26.31C8.26281 26.4043 8.276 26.4988 8.30778 26.5877C8.33956 26.6766 8.38926 26.7581 8.45381 26.8271C8.51835 26.896 8.59636 26.951 8.68301 26.9885C8.76965 27.0261 8.86309 27.0455 8.95753 27.0455C9.05197 27.0455 9.14541 27.0261 9.23206 26.9885C9.3187 26.951 9.39671 26.896 9.46126 26.8271C9.5258 26.7581 9.5755 26.6766 9.60728 26.5877C9.63907 26.4988 9.65225 26.4043 9.64603 26.31V17.21H22.555V30.941H9.64603V29.241C9.65225 29.1468 9.63907 29.0523 9.60728 28.9633C9.5755 28.8744 9.5258 28.7929 9.46126 28.724C9.39671 28.6551 9.3187 28.6001 9.23206 28.5625C9.14541 28.525 9.05197 28.5056 8.95753 28.5056C8.86309 28.5056 8.76965 28.525 8.68301 28.5625C8.59636 28.6001 8.51835 28.6551 8.45381 28.724C8.38926 28.7929 8.33956 28.8744 8.30778 28.9633C8.276 29.0523 8.26281 29.1468 8.26903 29.241V48.601H0.688031C0.50324 48.6147 0.330457 48.6977 0.204359 48.8335C0.0782605 48.9693 0.00817871 49.1477 0.00817871 49.333C0.00817871 49.5183 0.0782605 49.6968 0.204359 49.8325C0.330457 49.9683 0.50324 50.0513 0.688031 50.065H46.314C46.4988 50.0513 46.6716 49.9683 46.7977 49.8325C46.9238 49.6968 46.9939 49.5183 46.9939 49.333C46.9939 49.1477 46.9238 48.9693 46.7977 48.8335C46.6716 48.6977 46.4988 48.6147 46.314 48.601V48.599ZM17.839 41.48H14.362V39.38H17.839V41.48ZM17.839 37.912H14.362V35.807H17.839V37.912ZM14.362 42.941H17.839V45.046H14.362V42.941ZM17.839 32.399V34.339H14.362V32.399H17.839ZM14.362 46.511H17.839V48.597H14.362V46.511ZM19.216 32.399H22.555V48.599H19.216V32.399ZM23.932 31.668V29.102H24.419C24.9334 29.0898 25.4285 28.9043 25.8243 28.5756C26.2201 28.247 26.4935 27.7943 26.6 27.291H28.634C27.9287 27.8687 27.4536 28.6799 27.2947 29.5777C27.1359 30.4754 27.3038 31.4004 27.768 32.185C28.426 33.294 29.077 33.391 32.104 35.513L28.844 37.699C28.0578 38.2334 27.5118 39.0543 27.323 39.986C27.1182 40.9292 27.2771 41.915 27.768 42.746C28.468 43.925 28.93 43.838 35.868 48.6H23.932V31.668ZM36.511 44.7C36.6884 44.3914 36.9434 44.1345 37.2507 43.9548C37.5581 43.7752 37.9071 43.6791 38.263 43.676C38.6553 43.6759 39.0385 43.7937 39.363 44.014L39.663 44.2141C40.1317 44.5453 40.4585 45.0409 40.5782 45.6022C40.6979 46.1636 40.6018 46.7494 40.309 47.243C40.1327 47.5523 39.8783 47.8098 39.5711 47.9899C39.264 48.1699 38.915 48.2662 38.559 48.269C38.1669 48.2682 37.7839 48.1506 37.459 47.931L37.159 47.731C36.6908 47.3998 36.3645 46.9045 36.245 46.3436C36.1254 45.7827 36.2215 45.1973 36.514 44.704L36.511 44.7ZM37.033 42.454C36.3249 42.7437 35.7323 43.2591 35.347 43.92C34.9462 44.5979 34.7649 45.3831 34.828 46.168L31.909 44.211C32.481 43.978 32.572 43.826 35.846 41.658L37.033 42.454ZM40.575 35.996C40.4616 36.5548 40.1339 37.0469 39.662 37.367C31.537 42.684 31.724 42.988 30.684 42.988C30.3282 42.9845 29.9795 42.8879 29.6725 42.7079C29.3655 42.528 29.1109 42.2708 28.934 41.962C28.6397 41.4633 28.5444 40.872 28.667 40.306C28.7803 39.7467 29.108 39.2538 29.58 38.933L37.46 33.652C37.7849 33.4325 38.1679 33.3148 38.56 33.314C38.9157 33.3173 39.2643 33.4136 39.5713 33.5932C39.8782 33.7729 40.1329 34.0296 40.31 34.338C40.6046 34.837 40.6999 35.4288 40.577 35.995L40.575 35.996ZM37.332 32.096C37.119 32.1833 36.9152 32.2918 36.724 32.42L33.4 34.649L31.912 33.649C32.484 33.417 32.584 33.259 35.849 31.096L37.332 32.096ZM40.308 23.782C40.6008 24.2757 40.6969 24.8615 40.5772 25.4228C40.4575 25.9841 40.1307 26.4798 39.662 26.811L31.782 32.092C31.4633 32.3079 31.0882 32.4254 30.7033 32.4298C30.3184 32.4343 29.9406 32.3255 29.617 32.117L29.579 32.092L29.563 32.082C29.3066 31.9053 29.0919 31.6745 28.934 31.406C28.641 30.9124 28.5448 30.3266 28.6645 29.7652C28.7842 29.2038 29.1111 28.7081 29.58 28.377L37.46 23.095C37.7846 22.8749 38.1678 22.7571 38.56 22.757C38.9157 22.7603 39.2643 22.8566 39.5713 23.0362C39.8782 23.2158 40.1329 23.4726 40.31 23.781L40.308 23.782ZM24.418 20.941C24.5364 20.9445 24.6529 20.9713 24.7609 21.02C24.8689 21.0686 24.9663 21.138 25.0474 21.2243C25.1285 21.3106 25.1917 21.4121 25.2336 21.5229C25.2754 21.6337 25.2949 21.7517 25.291 21.87V26.714C25.2949 26.8324 25.2754 26.9504 25.2336 27.0612C25.1917 27.172 25.1285 27.2734 25.0474 27.3597C24.9663 27.446 24.8689 27.5155 24.7609 27.5641C24.6529 27.6127 24.5364 27.6395 24.418 27.643H23.931V20.943L24.418 20.941ZM9.64603 15.751V13.741H22.555V15.746L9.64603 15.751ZM9.64603 32.403H12.985V48.603H9.64603V32.403Z" fill="#FF5A3C"/>
</svg>
