<svg width="36" height="49" viewBox="0 0 36 49" fill="none" xmlns="http://www.w3.org/2000/svg">
<path d="M34.519 9.06805C28.6603 7.18575 23.1033 4.46953 18.019 1.00305C17.8897 0.912706 17.7357 0.864258 17.578 0.864258C17.4202 0.864258 17.2663 0.912706 17.137 1.00305C12.0656 4.49175 6.50521 7.20961 0.63699 9.06805C0.442901 9.1413 0.276855 9.27388 0.162488 9.44696C0.0481203 9.62004 -0.00874253 9.82478 -1.08695e-05 10.032V20.243C-1.08695e-05 30.758 4.20899 37.72 7.74099 41.707C11.541 45.999 15.97 48.374 17.578 48.374C19.186 48.374 23.614 45.999 27.415 41.707C30.945 37.719 35.154 30.758 35.154 20.243V10.035C35.1635 9.82751 35.1072 9.62229 34.9932 9.44864C34.8792 9.27499 34.7132 9.14179 34.519 9.06805ZM33.419 20.243C33.5912 27.5877 31.0166 34.7324 26.199 40.2791C22.461 44.4991 18.465 46.379 17.576 46.379C16.687 46.379 12.691 44.5041 8.95199 40.2791C4.13551 34.7318 1.56139 27.5875 1.73299 20.243V10.791C7.34788 8.94657 12.6797 6.33196 17.576 3.02203C22.4847 6.31016 27.8135 8.92294 33.419 10.79V20.243Z" fill="#FB5252"/>
<path d="M7.95998 11.014C7.92741 10.9285 7.87824 10.8502 7.8153 10.7837C7.75236 10.7172 7.67689 10.6639 7.59323 10.6267C7.50958 10.5895 7.41939 10.5693 7.32787 10.5671C7.23635 10.5649 7.14531 10.5809 7.05998 10.614C5.81298 11.114 4.53398 11.577 3.25998 11.986C3.11707 12.0331 2.99276 12.1243 2.90491 12.2465C2.81706 12.3687 2.77017 12.5156 2.77098 12.666V15.418C2.77098 15.6037 2.84473 15.7817 2.976 15.913C3.10728 16.0443 3.28533 16.118 3.47098 16.118C3.65663 16.118 3.83468 16.0443 3.96595 15.913C4.09723 15.7817 4.17098 15.6037 4.17098 15.418V13.188C5.31598 12.81 6.45998 12.388 7.57798 11.941C7.75016 11.8671 7.88655 11.7286 7.95795 11.5554C8.02934 11.3821 8.03007 11.1878 7.95998 11.014Z" fill="#FB5252"/>
<path d="M11.478 10.393C11.5745 10.3932 11.67 10.3727 11.758 10.333H11.771C11.9414 10.2545 12.0742 10.1123 12.141 9.93693C12.2077 9.76156 12.203 9.56703 12.128 9.39506C12.0923 9.30996 12.0399 9.23285 11.9741 9.16822C11.9082 9.10359 11.8301 9.05274 11.7443 9.01865C11.6586 8.98457 11.5669 8.96795 11.4746 8.96973C11.3823 8.97152 11.2914 8.99169 11.207 9.02906L11.196 9.03407C11.0255 9.11223 10.8924 9.25417 10.8255 9.42939C10.7585 9.60461 10.763 9.7991 10.838 9.97105C10.892 10.096 10.9814 10.2025 11.0951 10.2774C11.2087 10.3524 11.3418 10.3926 11.478 10.393Z" fill="#FB5252"/>
<path d="M26.657 35.4731C26.5804 35.422 26.4944 35.3868 26.404 35.3695C26.3136 35.3522 26.2207 35.3533 26.1307 35.3726C26.0408 35.3919 25.9556 35.4291 25.8802 35.4819C25.8048 35.5347 25.7408 35.6021 25.692 35.6801C25.1051 36.5935 24.4335 37.4496 23.686 38.2371C23.0658 38.8923 22.3973 39.5001 21.686 40.0551C21.5378 40.1716 21.4411 40.3413 21.4164 40.5282C21.3917 40.715 21.4411 40.9041 21.554 41.0551C21.6084 41.1294 21.6772 41.192 21.7563 41.2392C21.8354 41.2864 21.9231 41.3172 22.0144 41.3298C22.1056 41.3424 22.1985 41.3365 22.2874 41.3125C22.3763 41.2885 22.4595 41.2469 22.532 41.1901C23.2996 40.5912 24.0212 39.9357 24.691 39.2291C25.4997 38.3763 26.2263 37.4492 26.861 36.4601C26.9626 36.3015 26.9982 36.1095 26.9601 35.925C26.922 35.7406 26.8132 35.5783 26.657 35.4731Z" fill="#FB5252"/>
<path d="M19.822 42.1731L19.782 42.1971C19.6213 42.2942 19.5048 42.4503 19.4574 42.632C19.4099 42.8137 19.4353 43.0067 19.528 43.1701C19.5876 43.2772 19.6745 43.3665 19.7799 43.4291C19.8853 43.4916 20.0054 43.5251 20.128 43.5261C20.2512 43.5248 20.3718 43.4903 20.477 43.4261L20.524 43.3981C20.6844 43.3001 20.8002 43.1433 20.8467 42.9612C20.8932 42.7791 20.8668 42.586 20.773 42.4231C20.7275 42.3437 20.6666 42.2741 20.594 42.2185C20.5213 42.1629 20.4383 42.1222 20.3498 42.099C20.2613 42.0757 20.1691 42.0703 20.0785 42.083C19.9879 42.0957 19.9007 42.1263 19.822 42.1731Z" fill="#FB5252"/>
<path d="M12.219 23.165C11.6642 22.7252 10.977 22.4859 10.269 22.4859C9.561 22.4859 8.8738 22.7252 8.31899 23.165C8.06798 23.358 7.86467 23.606 7.72476 23.89C7.58485 24.1741 7.51208 24.4864 7.51208 24.803C7.51208 25.1196 7.58485 25.432 7.72476 25.716C7.86467 26 8.06798 26.2481 8.31899 26.441L13.327 30.649C13.882 31.0883 14.5691 31.3274 15.277 31.3274C15.9848 31.3274 16.672 31.0883 17.227 30.649L27.681 21.866C27.932 21.6731 28.1353 21.425 28.2752 21.141C28.4151 20.857 28.4879 20.5446 28.4879 20.228C28.4879 19.9114 28.4151 19.599 28.2752 19.315C28.1353 19.031 27.932 18.783 27.681 18.59C27.1261 18.1504 26.4389 17.9111 25.731 17.9111C25.023 17.9111 24.3359 18.1504 23.781 18.59L15.281 25.734L12.219 23.165ZM24.982 19.597C25.1953 19.4276 25.4596 19.3354 25.732 19.3354C26.0044 19.3354 26.2687 19.4276 26.482 19.597C26.5778 19.6718 26.6553 19.7675 26.7086 19.8767C26.7619 19.986 26.7896 20.106 26.7896 20.2275C26.7896 20.3491 26.7619 20.469 26.7086 20.5783C26.6553 20.6875 26.5778 20.7832 26.482 20.858L16.028 29.641C15.8144 29.8097 15.5502 29.9015 15.278 29.9015C15.0058 29.9015 14.7416 29.8097 14.528 29.641L9.51899 25.434C9.42301 25.3592 9.34535 25.2635 9.29194 25.1541C9.23853 25.0448 9.21076 24.9247 9.21076 24.803C9.21076 24.6813 9.23853 24.5612 9.29194 24.4519C9.34535 24.3425 9.42301 24.2468 9.51899 24.172C9.73266 24.0035 9.99686 23.9118 10.269 23.9118C10.5411 23.9118 10.8053 24.0035 11.019 24.172L14.676 27.245C14.8466 27.3805 15.0581 27.4542 15.276 27.4542C15.4939 27.4542 15.7053 27.3805 15.876 27.245L24.982 19.597Z" fill="#FB5252"/>
</svg>
