<svg width="40" height="42" viewBox="0 0 40 42" fill="none" xmlns="http://www.w3.org/2000/svg">
<path d="M39.491 19.92L20.742 0.452057C20.6358 0.339879 20.5078 0.250542 20.3658 0.189484C20.2239 0.128425 20.071 0.0969238 19.9165 0.0969238C19.762 0.0969238 19.6091 0.128425 19.4672 0.189484C19.3252 0.250542 19.1973 0.339879 19.091 0.452057L0.343002 19.92C0.178743 20.0927 0.0675651 20.3089 0.0227098 20.5429C-0.0221454 20.7769 0.00121278 21.0189 0.0900023 21.2401C0.173954 21.4585 0.321613 21.6468 0.51383 21.7803C0.706047 21.9139 0.933956 21.9866 1.168 21.989H5.001V40.241C4.99511 40.5563 5.1146 40.8611 5.33322 41.0883C5.55184 41.3156 5.85173 41.4468 6.167 41.4531H33.667C33.9825 41.447 34.2828 41.316 34.5018 41.0887C34.7208 40.8615 34.8406 40.5566 34.835 40.241V21.989H38.668C38.902 21.9868 39.1299 21.9141 39.3219 21.7805C39.514 21.647 39.6615 21.4586 39.745 21.2401C39.8337 21.019 39.8571 20.7771 39.8124 20.5431C39.7677 20.3092 39.6569 20.0929 39.493 19.92H39.491ZM33.665 19.5651C33.3497 19.5714 33.0498 19.7025 32.8312 19.9298C32.6126 20.157 32.4931 20.4618 32.499 20.777V39.0331H7.333V20.777C7.33889 20.4618 7.21941 20.157 7.00078 19.9298C6.78216 19.7025 6.48228 19.5714 6.167 19.5651H3.984L19.917 3.02206L35.849 19.5651H33.665Z" fill="#FF5A3C"/>
<path d="M13.952 28.0824V33.0484L12.098 34.9073C12.0046 35.0005 11.9305 35.1111 11.8799 35.2328C11.8292 35.3546 11.8031 35.4851 11.8029 35.6169C11.8027 35.7488 11.8285 35.8794 11.8788 36.0013C11.9291 36.1232 12.0029 36.234 12.096 36.3274C12.1891 36.4207 12.2997 36.4948 12.4214 36.5455C12.5432 36.5961 12.6737 36.6223 12.8056 36.6224C12.9374 36.6226 13.068 36.5969 13.1899 36.5466C13.3118 36.4963 13.4226 36.4225 13.516 36.3293L15.369 34.4704H20.322C22.0131 34.4659 23.6333 33.7908 24.8273 32.5932C26.0213 31.3957 26.6915 29.7734 26.691 28.0824V22.6984C26.6916 22.5666 26.6663 22.4361 26.6163 22.3141C26.5663 22.1922 26.4928 22.0814 26.3999 21.988C26.3069 21.8946 26.1965 21.8205 26.0748 21.77C25.9532 21.7194 25.8227 21.6934 25.691 21.6934H20.322C18.6305 21.6979 17.0098 22.3732 15.8156 23.5711C14.6214 24.7691 13.9512 26.3919 13.952 28.0834V28.0824ZM24.687 28.0824C24.6886 29.2417 24.2296 30.3542 23.411 31.1752C22.5925 31.9962 21.4813 32.4585 20.322 32.4604H17.373L21.03 28.7924C21.2184 28.6045 21.3245 28.3494 21.3249 28.0833C21.3252 27.8172 21.2199 27.5618 21.032 27.3734C20.8441 27.1849 20.589 27.0788 20.3229 27.0785C20.0568 27.0781 19.8014 27.1835 19.613 27.3714L15.956 31.0394V28.0824C15.9551 27.5081 16.0673 26.9394 16.2862 26.4085C16.5051 25.8777 16.8265 25.3951 17.2319 24.9885C17.6373 24.5819 18.1189 24.259 18.6491 24.0385C19.1793 23.818 19.7478 23.7042 20.322 23.7034H24.687V28.0824Z" fill="#FF5A3C"/>
</svg>
