<svg width="44" height="42" viewBox="0 0 44 42" fill="none" xmlns="http://www.w3.org/2000/svg">
<path d="M43.433 23.54C43.2805 22.4497 42.7793 21.438 42.0042 20.6561C41.2292 19.8742 40.2219 19.3641 39.133 19.202V17.871C39.1945 16.1724 38.581 14.5186 37.4267 13.271C36.2724 12.0234 34.6712 11.2835 32.973 11.213C31.3117 11.2885 29.7437 12.0023 28.5959 13.2057C27.448 14.409 26.809 16.009 26.812 17.672H26.854L26.812 17.679V32.099C26.812 36.708 23.398 40.453 19.201 40.453C15.004 40.453 11.6 36.706 11.6 32.101V30.852C12.65 30.852 13.774 30.083 13.774 27.925V26.085C15.9982 25.5605 17.9864 24.3148 19.4286 22.5421C20.8708 20.7694 21.6859 18.5694 21.747 16.285V14.759H20.297L20.267 5.23599C20.265 4.38497 19.966 3.56135 19.4216 2.90723C18.8772 2.25311 18.1215 1.80953 17.285 1.65302C17.199 1.38131 17.06 1.12931 16.876 0.911623C16.6921 0.693931 16.4668 0.514841 16.2133 0.384676C15.9597 0.254511 15.6829 0.175862 15.3988 0.153261C15.1147 0.130661 14.8289 0.164549 14.558 0.252993C14.011 0.436817 13.5588 0.829203 13.2996 1.34476C13.0404 1.86031 12.9953 2.45736 13.174 3.00601C13.3085 3.43106 13.5714 3.80395 13.9267 4.07337C14.2819 4.34278 14.7119 4.49546 15.1574 4.51038C15.603 4.52529 16.0422 4.40171 16.4147 4.15665C16.7871 3.91159 17.0744 3.5571 17.237 3.142C17.6908 3.27416 18.0897 3.54946 18.3742 3.92682C18.6588 4.30418 18.8137 4.76338 18.816 5.23599L18.849 14.755H17.399V16.302C17.3748 17.5373 16.9573 18.7326 16.2072 19.7143C15.4571 20.6961 14.4135 21.413 13.228 21.761C11.9314 22.1763 10.5376 22.1763 9.241 21.761C8.05694 21.4117 7.015 20.6942 6.26641 19.7126C5.51782 18.731 5.10154 17.5363 5.078 16.302V14.755H2.9V5.24301C2.90012 4.76353 3.05759 4.29733 3.34825 3.91599C3.63891 3.53464 4.04669 3.25923 4.509 3.13202C4.61185 3.40076 4.76697 3.64644 4.96537 3.85486C5.16377 4.06328 5.40152 4.23029 5.66488 4.34625C5.92823 4.46222 6.21196 4.52484 6.49966 4.53046C6.78736 4.53608 7.07332 4.48459 7.341 4.379C7.88209 4.16114 8.31529 3.73846 8.54638 3.20288C8.77747 2.6673 8.78775 2.06214 8.575 1.51901C8.41258 1.09754 8.1232 0.736938 7.74689 0.487124C7.37058 0.237309 6.92593 0.110628 6.47446 0.124575C6.02299 0.138522 5.58701 0.292407 5.22684 0.564974C4.86666 0.837541 4.60009 1.2153 4.464 1.646C3.61849 1.79566 2.85283 2.23869 2.30173 2.89716C1.75063 3.55563 1.44939 4.38735 1.451 5.246V14.758H0V16.28C0.0590934 18.566 0.873363 20.7681 2.31571 22.5426C3.75806 24.3171 5.74732 25.5641 7.973 26.089V27.929C7.973 30.086 9.097 30.856 10.147 30.856V32.105C10.147 37.52 14.211 41.922 19.206 41.922C24.201 41.922 28.266 37.515 28.266 32.105V17.716C28.2509 16.4311 28.7324 15.1901 29.6102 14.2516C30.4879 13.3132 31.694 12.7498 32.977 12.679C34.2887 12.7479 35.5199 13.3326 36.4022 14.3055C37.2845 15.2785 37.7463 16.5609 37.687 17.873V19.206C36.6806 19.3405 35.7368 19.7712 34.9757 20.4433C34.2146 21.1154 33.6705 21.9986 33.4125 22.9807C33.1545 23.9628 33.1943 24.9994 33.5268 25.9588C33.8593 26.9182 34.4695 27.7571 35.2799 28.3689C36.0903 28.9807 37.0642 29.3378 38.078 29.3948C39.0918 29.4518 40.0997 29.2061 40.9735 28.689C41.8474 28.1718 42.5477 27.4066 42.9857 26.4905C43.4236 25.5744 43.5793 24.5488 43.433 23.544V23.54ZM15.22 3.04602C15.0749 3.04741 14.9326 3.00563 14.8113 2.926C14.69 2.84637 14.5951 2.73247 14.5387 2.59879C14.4822 2.4651 14.4668 2.31765 14.4943 2.17517C14.5218 2.03269 14.5911 1.90162 14.6933 1.79859C14.7955 1.69555 14.926 1.6252 15.0682 1.5965C15.2105 1.5678 15.358 1.58202 15.4922 1.63736C15.6263 1.69271 15.741 1.7867 15.8216 1.90735C15.9022 2.02801 15.9452 2.16989 15.945 2.315C15.9455 2.41064 15.9272 2.50546 15.891 2.594C15.8548 2.68253 15.8015 2.76306 15.7342 2.83097C15.6668 2.89887 15.5868 2.95281 15.4985 2.98972C15.4103 3.02662 15.3156 3.04576 15.22 3.04602ZM6.52 1.58301C6.66507 1.58162 6.80727 1.62336 6.92857 1.70294C7.04986 1.78253 7.14477 1.89637 7.20125 2.03C7.25773 2.16363 7.27323 2.31101 7.24578 2.45346C7.21833 2.59591 7.14917 2.72701 7.04708 2.83008C6.94499 2.93315 6.81458 3.00356 6.6724 3.03238C6.53022 3.0612 6.38268 3.04714 6.24852 2.99195C6.11435 2.93675 5.99961 2.84294 5.91887 2.72241C5.83812 2.60189 5.79501 2.46008 5.795 2.315C5.79434 2.21898 5.81268 2.12379 5.84897 2.03488C5.88526 1.94598 5.93878 1.86513 6.00645 1.797C6.07412 1.72887 6.15459 1.67481 6.24325 1.63791C6.3319 1.60101 6.42698 1.582 6.523 1.582L6.52 1.58301ZM1.45 16.276V16.217H3.624V16.301C3.64626 17.8448 4.16011 19.3413 5.09091 20.5731C6.02171 21.805 7.32098 22.708 8.8 23.151C10.3837 23.6585 12.0863 23.6585 13.67 23.151C15.1494 22.7081 16.449 21.805 17.38 20.573C18.311 19.3409 18.8249 17.8441 18.847 16.3V16.216H20.297V16.275C20.2305 18.3281 19.4593 20.2957 18.1129 21.847C16.7666 23.3984 14.9272 24.4391 12.904 24.794C11.898 24.9976 10.8672 25.0488 9.846 24.946C9.51024 24.9124 9.17646 24.8613 8.846 24.793C6.82238 24.4391 4.98236 23.3991 3.6354 21.848C2.28844 20.2969 1.51671 18.3293 1.45 16.276ZM10.15 29.388C9.498 29.388 9.426 28.364 9.426 27.925V26.372C9.483 26.38 9.542 26.383 9.602 26.389C9.662 26.395 9.746 26.403 9.82 26.409C10.162 26.44 10.508 26.46 10.856 26.46H10.892C11.24 26.46 11.585 26.44 11.926 26.409C11.998 26.403 12.075 26.397 12.15 26.389C12.208 26.382 12.268 26.381 12.325 26.372V27.925C12.325 28.364 12.252 29.388 11.6 29.388H10.15ZM38.416 27.925C37.6908 27.932 36.9799 27.7232 36.3736 27.3254C35.7673 26.9275 35.2929 26.3584 35.0106 25.6904C34.7283 25.0224 34.6509 24.2856 34.7882 23.5735C34.9254 22.8614 35.2712 22.2062 35.7816 21.691C36.292 21.1758 36.944 20.8239 37.6548 20.68C38.3656 20.536 39.1031 20.6066 39.7737 20.8826C40.4443 21.1586 41.0178 21.6277 41.4213 22.2303C41.8248 22.8329 42.0402 23.5418 42.04 24.267C42.0422 24.7455 41.9501 25.2197 41.769 25.6626C41.5878 26.1054 41.3211 26.5083 40.9842 26.848C40.6473 27.1877 40.2466 27.4577 39.8053 27.6425C39.3639 27.8273 38.8905 27.9233 38.412 27.925H38.416Z" fill="#FF5A3C"/>
<path d="M38.129 22.494C37.7675 22.5003 37.4159 22.6132 37.1184 22.8186C36.8209 23.0241 36.5906 23.3128 36.4567 23.6486C36.3227 23.9844 36.2909 24.3523 36.3652 24.7062C36.4396 25.06 36.6169 25.3839 36.8747 25.6374C37.1326 25.8908 37.4595 26.0624 37.8146 26.1307C38.1697 26.1989 38.537 26.1608 38.8704 26.021C39.2038 25.8812 39.4886 25.646 39.6888 25.345C39.8891 25.044 39.9959 24.6905 39.996 24.329C39.9939 24.0859 39.9439 23.8456 39.849 23.6218C39.754 23.398 39.6159 23.1952 39.4426 23.0248C39.2692 22.8544 39.0639 22.7198 38.8386 22.6287C38.6132 22.5376 38.3721 22.4919 38.129 22.494ZM38.129 24.94C38.0083 24.938 37.891 24.9004 37.7916 24.8319C37.6923 24.7634 37.6154 24.6671 37.5707 24.5551C37.5259 24.443 37.5153 24.3203 37.5401 24.2022C37.5649 24.0841 37.624 23.976 37.7101 23.8914C37.7962 23.8069 37.9053 23.7497 38.0238 23.727C38.1423 23.7043 38.2649 23.7171 38.3761 23.7638C38.4874 23.8106 38.5823 23.8892 38.649 23.9897C38.7157 24.0903 38.7512 24.2083 38.751 24.329C38.7484 24.4917 38.6815 24.6468 38.565 24.7605C38.4485 24.8742 38.2918 24.9373 38.129 24.936V24.94Z" fill="#FF5A3C"/>
</svg>
