<svg width="48" height="41" viewBox="0 0 48 41" fill="none" xmlns="http://www.w3.org/2000/svg">
<path d="M46.134 15.407L45.093 14.224L41.437 3.64798C41.1618 2.79871 40.6298 2.05582 39.9144 1.52185C39.199 0.98788 38.3354 0.689179 37.443 0.666992H11.331C10.4385 0.68798 9.5746 0.986244 8.85926 1.52042C8.14393 2.05459 7.6126 2.79817 7.33899 3.64798L3.73299 14.092L2.23299 15.582C1.57672 16.1947 1.0545 16.9368 0.699268 17.7614C0.344032 18.5859 0.163478 19.4752 0.168989 20.373V35.781C0.134424 36.9506 0.563898 38.0864 1.36368 38.9405C2.16347 39.7946 3.26864 40.2977 4.43799 40.34H7.13799C8.30734 40.2977 9.41251 39.7946 10.2123 38.9405C11.0121 38.0864 11.4416 36.9506 11.407 35.781V33.545H36.728V35.781C36.6934 36.9504 37.1228 38.0861 37.9223 38.9402C38.7219 39.7942 39.8268 40.2975 40.996 40.34H43.696C44.8652 40.2972 45.97 39.7939 46.7697 38.9399C47.5694 38.0859 47.999 36.9504 47.965 35.781V19.967C47.965 18.2678 47.309 16.6343 46.134 15.407ZM9.25799 4.392C9.40052 3.95213 9.67695 3.5678 10.0486 3.29276C10.4203 3.01771 10.8687 2.86568 11.331 2.85797H37.454C37.9157 2.86789 38.3631 3.02074 38.7343 3.29547C39.1056 3.5702 39.3825 3.95332 39.527 4.392L42.713 13.598H40.333C40.24 12.6544 39.9585 11.739 39.5053 10.9061C39.0521 10.0732 38.4364 9.33974 37.6946 8.74911C36.9529 8.15849 36.1001 7.72272 35.1869 7.46762C34.2736 7.21252 33.3185 7.14327 32.378 7.26398C30.8455 7.54787 29.4448 8.31675 28.3825 9.45718C27.3203 10.5976 26.6526 12.0493 26.478 13.598H6.06899L9.25799 4.392ZM38.25 13.598H28.538C28.6416 12.9355 28.8778 12.3007 29.2325 11.7317C29.5872 11.1626 30.0531 10.671 30.6023 10.2862C31.1515 9.90143 31.7727 9.63145 32.4287 9.4924C33.0846 9.35336 33.7619 9.34812 34.42 9.47699C35.3884 9.72079 36.2655 10.2399 36.9452 10.9716C37.6249 11.7033 38.0781 12.6162 38.25 13.6V13.598ZM9.35999 35.78C9.37644 36.3885 9.1515 36.9788 8.73427 37.4221C8.31704 37.8654 7.7414 38.1256 7.13299 38.146H4.43299C3.82458 38.1256 3.24894 37.8654 2.83171 37.4221C2.41448 36.9788 2.18954 36.3885 2.20599 35.78V32.909C2.86787 33.3393 3.64371 33.5608 4.43299 33.545H9.35999V35.78ZM45.918 35.78C45.9358 36.3887 45.7114 36.9796 45.2941 37.4232C44.8768 37.8667 44.3007 38.1267 43.692 38.146H40.992C40.3842 38.1241 39.8096 37.8633 39.3928 37.4204C38.9761 36.9774 38.7508 36.388 38.766 35.78V33.544H43.688C44.477 33.5599 45.2525 33.3383 45.914 32.908V35.779L45.918 35.78ZM43.692 31.352H4.43799C4.13776 31.3443 3.84197 31.2776 3.56754 31.1556C3.29311 31.0336 3.04541 30.8587 2.83859 30.6409C2.63178 30.4232 2.4699 30.1668 2.36222 29.8864C2.25453 29.6061 2.20314 29.3072 2.21099 29.007V20.372C2.20792 19.7842 2.32705 19.2021 2.56083 18.6628C2.7946 18.1235 3.13791 17.6386 3.56899 17.239L3.60999 17.194L4.99799 15.794H43.669L44.65 16.922C44.66 16.944 44.691 16.955 44.701 16.976C45.4781 17.7781 45.9109 18.8522 45.907 19.969V29.009H45.917C45.9312 29.6143 45.7053 30.2006 45.2886 30.6398C44.8718 31.0791 44.2982 31.3355 43.693 31.353L43.692 31.352Z" fill="#FF5A3C"/>
<path d="M11.082 21.3521H4.882C4.66256 21.3531 4.45248 21.441 4.29769 21.5966C4.14289 21.7521 4.056 21.9626 4.056 22.182V26.494C4.056 26.7135 4.14289 26.924 4.29769 27.0795C4.45248 27.2351 4.66256 27.323 4.882 27.324H11.082C11.3014 27.323 11.5115 27.2351 11.6663 27.0795C11.8211 26.924 11.908 26.7135 11.908 26.494V22.182C11.908 21.9626 11.8211 21.7521 11.6663 21.5966C11.5115 21.441 11.3014 21.3531 11.082 21.3521ZM10.255 25.665H5.708V23.013H10.255V25.665Z" fill="#FF5A3C"/>
<path d="M43.249 21.3519H37.049C36.8295 21.353 36.6193 21.4409 36.4643 21.5964C36.3094 21.7519 36.2222 21.9624 36.222 22.1819V26.4939C36.2222 26.7135 36.3094 26.924 36.4643 27.0795C36.6193 27.235 36.8295 27.3229 37.049 27.3239H43.249C43.4685 27.3229 43.6787 27.235 43.8337 27.0795C43.9886 26.924 44.0757 26.7135 44.076 26.4939V22.1819C44.0757 21.9624 43.9886 21.7519 43.8337 21.5964C43.6787 21.4409 43.4685 21.353 43.249 21.3519ZM42.423 25.6649H37.871V23.0129H42.418L42.423 25.6649Z" fill="#FF5A3C"/>
<path d="M28.058 25.121H20.072C19.8521 25.121 19.6413 25.2083 19.4858 25.3638C19.3303 25.5193 19.243 25.7301 19.243 25.95C19.243 26.1698 19.3303 26.3807 19.4858 26.5362C19.6413 26.6916 19.8521 26.779 20.072 26.779H28.058C28.2778 26.779 28.4887 26.6916 28.6442 26.5362C28.7996 26.3807 28.887 26.1698 28.887 25.95C28.887 25.7301 28.7996 25.5193 28.6442 25.3638C28.4887 25.2083 28.2778 25.121 28.058 25.121Z" fill="#FF5A3C"/>
<path d="M28.058 21.675H20.072C19.8521 21.675 19.6413 21.7624 19.4858 21.9178C19.3303 22.0733 19.243 22.2842 19.243 22.504C19.243 22.7239 19.3303 22.9348 19.4858 23.0902C19.6413 23.2457 19.8521 23.333 20.072 23.333H28.058C28.2778 23.333 28.4887 23.2457 28.6442 23.0902C28.7996 22.9348 28.887 22.7239 28.887 22.504C28.887 22.2842 28.7996 22.0733 28.6442 21.9178C28.4887 21.7624 28.2778 21.675 28.058 21.675Z" fill="#FF5A3C"/>
</svg>
