<svg width="72" height="65" viewBox="0 0 72 65" fill="none" xmlns="http://www.w3.org/2000/svg">
<path opacity="0.16" d="M58.4999 0.949219C61.1699 0.949219 63.78 1.74098 66.0001 3.22438C68.2201 4.70778 69.9505 6.81619 70.9723 9.28299C71.994 11.7498 72.2614 14.4642 71.7405 17.0829C71.2196 19.7017 69.9338 22.1072 68.0458 23.9952C66.1578 25.8832 63.7523 27.1689 61.1336 27.6898C58.5149 28.2107 55.8005 27.9434 53.3337 26.9216C50.8668 25.8998 48.7584 24.1695 47.275 21.9494C45.7916 19.7294 44.9999 17.1193 44.9999 14.4492C44.9999 10.8688 46.4222 7.43502 48.9539 4.90328C51.4857 2.37154 54.9195 0.949219 58.4999 0.949219Z" fill="#FF5A3C"/>
<path d="M64.8079 27.6703C64.3422 26.1207 63.4583 24.7296 62.2533 23.6497C61.0484 22.5698 59.569 21.8431 57.9779 21.5493C57.7069 21.4963 57.4359 21.5053 57.1639 21.4753C54.7169 11.6193 45.3889 4.57031 34.3489 4.57031H30.7329C19.6939 4.57031 10.3659 11.6203 7.91687 21.4703C6.19588 21.6488 4.55797 22.3006 3.18487 23.3533C2.16014 24.1252 1.33621 25.1323 0.782661 26.2897C0.22911 27.447 -0.0378036 28.7205 0.0044628 30.0028C0.0467292 31.285 0.396934 32.5382 1.0255 33.6565C1.65407 34.7749 2.54254 35.7256 3.61587 36.4283V51.5703C3.63807 52.7712 3.98624 53.9434 4.62316 54.9617C5.26008 55.9799 6.16179 56.8059 7.23187 57.3513V59.9633C7.28656 61.3493 7.8879 62.6572 8.90436 63.6009C9.92083 64.5447 11.2697 65.0475 12.6559 64.9993C14.0421 65.0475 15.3909 64.5447 16.4074 63.6009C17.4238 62.6572 18.0252 61.3493 18.0799 59.9633V58.2853H46.9999V59.9643C47.1001 61.3342 47.715 62.6154 48.7211 63.5505C49.7271 64.4857 51.0498 65.0055 52.4234 65.0055C53.7969 65.0055 55.1196 64.4857 56.1257 63.5505C57.1317 62.6154 57.7466 61.3342 57.8469 59.9643V57.3523C58.9177 56.8072 59.8201 55.9813 60.4576 54.9628C61.095 53.9443 61.4436 52.7716 61.4659 51.5703V36.4313C62.8645 35.4995 63.9379 34.1551 64.5369 32.5849C65.1358 31.0147 65.2306 29.2968 64.8079 27.6703ZM30.7299 7.92731H34.3449C43.4989 7.92731 51.2509 13.6593 53.5089 21.7273C52.3672 22.0207 51.2922 22.5298 50.3419 23.2273C49.3142 23.9779 48.4766 24.9588 47.8963 26.0914C47.3159 27.224 47.0089 28.4767 46.9999 29.7493V38.1423H18.0769V30.1083C18.0512 28.1928 17.4019 26.3378 16.2274 24.8244C15.0528 23.311 13.4171 22.2216 11.5679 21.7213C13.8289 13.6563 21.5799 7.92731 30.7299 7.92731ZM50.6149 43.1783C50.5969 43.6404 50.3965 44.0766 50.0577 44.3913C49.7188 44.706 49.269 44.8735 48.8069 44.8573H16.2689C16.0381 44.8742 15.8063 44.8434 15.588 44.7667C15.3698 44.69 15.1696 44.5691 15.0001 44.4116C14.8306 44.2541 14.6955 44.0633 14.603 43.8512C14.5106 43.6391 14.4629 43.4102 14.4629 43.1788C14.4629 42.9474 14.5106 42.7185 14.603 42.5064C14.6955 42.2943 14.8306 42.1035 15.0001 41.946C15.1696 41.7885 15.3698 41.6676 15.588 41.591C15.8063 41.5143 16.0381 41.4834 16.2689 41.5003H48.8069C49.2689 41.4841 49.7185 41.6515 50.0573 41.966C50.3962 42.2805 50.5966 42.7164 50.6149 43.1783ZM14.4609 59.9643C14.4253 60.4193 14.2195 60.8442 13.8845 61.1541C13.5494 61.4641 13.1098 61.6362 12.6534 61.6362C12.197 61.6362 11.7573 61.4641 11.4223 61.1541C11.0872 60.8442 10.8814 60.4193 10.8459 59.9643V58.2853H14.4609V59.9643ZM54.2299 59.9643C54.1943 60.4193 53.9885 60.8442 53.6535 61.1541C53.3184 61.4641 52.8788 61.6362 52.4224 61.6362C51.966 61.6362 51.5263 61.4641 51.1913 61.1541C50.8562 60.8442 50.6504 60.4193 50.6149 59.9643V58.2853H54.2299V59.9643ZM58.7439 34.0823C58.4764 34.2199 58.2514 34.4276 58.0929 34.6831C57.9343 34.9387 57.8483 35.2326 57.8439 35.5333V51.5703C57.8066 52.4938 57.4056 53.3651 56.7284 53.994C56.0511 54.6229 55.1526 54.9584 54.2289 54.9273H10.8459C9.92215 54.9584 9.02363 54.6229 8.34637 53.994C7.66911 53.3651 7.26811 52.4938 7.23087 51.5703V35.5323C7.22604 35.2317 7.13979 34.938 6.98131 34.6825C6.82283 34.427 6.59804 34.2192 6.33087 34.0813C5.58882 33.7227 4.95134 33.1795 4.47959 32.5037C4.00784 31.8279 3.71764 31.0423 3.63683 30.2221C3.55602 29.4019 3.6873 28.5747 4.01809 27.8199C4.34887 27.065 4.86807 26.4078 5.52587 25.9113C6.14706 25.4271 6.86187 25.0768 7.6252 24.8827C8.38853 24.6886 9.18381 24.6547 9.96087 24.7833C11.2208 24.9922 12.3654 25.6425 13.1898 26.6179C14.0142 27.5933 14.4648 28.8302 14.4609 30.1073V38.4503C13.4369 38.7565 12.536 39.3786 11.8867 40.2275C11.2375 41.0765 10.8732 42.1089 10.8459 43.1773C10.9006 44.5631 11.5018 45.8708 12.518 46.8145C13.5343 47.7583 14.8828 48.2612 16.2689 48.2133H48.8069C50.1929 48.2612 51.5415 47.7583 52.5577 46.8145C53.574 45.8708 54.1752 44.5631 54.2299 43.1773C54.2026 42.1089 53.8383 41.0765 53.189 40.2275C52.5398 39.3786 51.6388 38.7565 50.6149 38.4503V29.7503C50.6207 28.987 50.8053 28.2356 51.1538 27.5564C51.5023 26.8772 52.0051 26.2892 52.6219 25.8393C53.2747 25.354 54.0232 25.0131 54.8179 24.8393C55.6125 24.6655 56.4351 24.6628 57.2309 24.8313C58.176 25.0051 59.0549 25.4361 59.7708 26.0771C60.4868 26.7181 61.012 27.5441 61.2889 28.4643C61.5808 29.5506 61.4867 30.7045 61.0225 31.7291C60.5584 32.7537 59.753 33.5854 58.7439 34.0823Z" fill="#FF5A3C"/>
</svg>
