<svg width="17" height="17" viewBox="0 0 17 17" fill="none" xmlns="http://www.w3.org/2000/svg">
<path d="M15.8639 15.203L11.3349 10.644C12.0841 9.71426 12.5559 8.5921 12.6961 7.40634C12.8364 6.22058 12.6393 5.01929 12.1276 3.94046C11.6159 2.86163 10.8104 1.94899 9.80339 1.30734C8.79642 0.665691 7.6289 0.321046 6.43491 0.312988C4.75211 0.312988 3.13823 0.981499 1.94831 2.17142C0.758394 3.36134 0.0899048 4.97519 0.0899048 6.65799C0.0899048 8.34079 0.758394 9.95467 1.94831 11.1446C3.13823 12.3345 4.75211 13.003 6.43491 13.003C7.87876 13.0031 9.27809 12.5031 10.3949 11.588L14.9229 16.146C14.9843 16.208 15.0573 16.2572 15.1378 16.2908C15.2183 16.3244 15.3047 16.3416 15.3919 16.3416C15.4791 16.3416 15.5655 16.3244 15.646 16.2908C15.7265 16.2572 15.7995 16.208 15.8609 16.146C15.9856 16.0209 16.0558 15.8517 16.0564 15.6751C16.057 15.4985 15.9878 15.3289 15.8639 15.203ZM6.43491 11.667C5.44284 11.6735 4.47118 11.3853 3.64312 10.8389C2.81506 10.2925 2.16792 9.51252 1.78373 8.59784C1.39955 7.68316 1.29563 6.67499 1.48516 5.70117C1.67469 4.72736 2.14913 3.83176 2.84832 3.12793C3.54751 2.4241 4.43996 1.94377 5.4125 1.7478C6.38504 1.55184 7.39387 1.64909 8.31107 2.02722C9.22826 2.40535 10.0125 3.04731 10.5644 3.87173C11.1163 4.69616 11.4109 5.6659 11.4109 6.65799C11.4133 7.98148 10.8909 9.25195 9.95811 10.1909C9.02536 11.1298 7.75838 11.6606 6.43491 11.667Z" fill="#263045"/>
</svg>
