<svg width="78" height="16" viewBox="0 0 78 16" fill="none" xmlns="http://www.w3.org/2000/svg">
<path d="M21.3009 7.73389C21.3009 6.25053 21.7408 4.80048 22.5649 3.56711C23.389 2.33374 24.5604 1.37245 25.9308 0.80479C27.3013 0.237133 28.8093 0.0886078 30.2641 0.377997C31.719 0.667387 33.0554 1.38169 34.1042 2.43059C35.1531 3.47948 35.8674 4.81585 36.1568 6.27071C36.4462 7.72557 36.2977 9.23357 35.73 10.604C35.1624 11.9745 34.2011 13.1458 32.9677 13.9699C31.7344 14.794 30.2843 15.2339 28.8009 15.2339C26.8118 15.2339 24.9042 14.4437 23.4976 13.0372C22.0911 11.6307 21.3009 9.72301 21.3009 7.73389Z" fill="#FF5A3C"/>
<path d="M0.902954 7.73389C0.902954 6.84387 1.16687 5.97384 1.66134 5.23382C2.15581 4.4938 2.85861 3.91702 3.68088 3.57643C4.50315 3.23583 5.40795 3.14672 6.28086 3.32035C7.15377 3.49399 7.9556 3.92257 8.58493 4.55191C9.21427 5.18124 9.64285 5.98307 9.81649 6.85598C9.99012 7.72889 9.90101 8.63369 9.56041 9.45596C9.21982 10.2782 8.64304 10.981 7.90302 11.4755C7.163 11.97 6.29297 12.2339 5.40295 12.2339C4.20948 12.2339 3.06489 11.7598 2.22097 10.9159C1.37706 10.072 0.902954 8.92736 0.902954 7.73389Z" fill="white"/>
<path opacity="0.4" d="M1.80396 7.73389C1.80396 7.04165 2.00923 6.36496 2.39381 5.78939C2.7784 5.21382 3.32502 4.76522 3.96456 4.50031C4.6041 4.2354 5.30784 4.16609 5.98677 4.30114C6.6657 4.43619 7.28934 4.76953 7.77883 5.25901C8.26831 5.7485 8.60166 6.37214 8.7367 7.05107C8.87175 7.73 8.80244 8.43374 8.53753 9.07328C8.27263 9.71282 7.82402 10.2594 7.24845 10.644C6.67288 11.0286 5.99619 11.2339 5.30396 11.2339C4.3757 11.2339 3.48546 10.8651 2.82908 10.2088C2.1727 9.55238 1.80396 8.66214 1.80396 7.73389Z" fill="#FF5A3C"/>
<path d="M47.7 7.73389C47.7 6.84387 47.9639 5.97384 48.4583 5.23382C48.9528 4.4938 49.6556 3.91702 50.4779 3.57643C51.3001 3.23583 52.2049 3.14672 53.0779 3.32035C53.9508 3.49399 54.7526 3.92257 55.3819 4.55191C56.0113 5.18124 56.4399 5.98307 56.6135 6.85598C56.7871 7.72889 56.698 8.63369 56.3574 9.45596C56.0168 10.2782 55.44 10.981 54.7 11.4755C53.96 11.97 53.09 12.2339 52.2 12.2339C51.0065 12.2339 49.8619 11.7598 49.018 10.9159C48.1741 10.072 47.7 8.92736 47.7 7.73389Z" fill="white"/>
<path opacity="0.4" d="M48.601 7.73389C48.601 7.04165 48.8062 6.36496 49.1908 5.78939C49.5754 5.21382 50.122 4.76522 50.7616 4.50031C51.4011 4.2354 52.1048 4.16609 52.7838 4.30114C53.4627 4.43619 54.0863 4.76953 54.5758 5.25901C55.0653 5.7485 55.3987 6.37214 55.5337 7.05107C55.6687 7.73 55.5994 8.43374 55.3345 9.07328C55.0696 9.71282 54.621 10.2594 54.0454 10.644C53.4699 11.0286 52.7932 11.2339 52.101 11.2339C51.1727 11.2339 50.2825 10.8651 49.6261 10.2088C48.9697 9.55238 48.601 8.66214 48.601 7.73389Z" fill="#FF5A3C"/>
<path d="M77.098 7.73389C77.098 5.24861 75.0832 3.23389 72.598 3.23389C70.1127 3.23389 68.098 5.24861 68.098 7.73389C68.098 10.2192 70.1127 12.2339 72.598 12.2339C75.0832 12.2339 77.098 10.2192 77.098 7.73389Z" fill="white"/>
<path opacity="0.4" d="M69.098 7.73389C69.098 7.04165 69.3032 6.36496 69.6878 5.78939C70.0724 5.21382 70.619 4.76522 71.2586 4.50031C71.8981 4.2354 72.6018 4.16609 73.2808 4.30114C73.9597 4.43619 74.5834 4.76953 75.0728 5.25901C75.5623 5.7485 75.8957 6.37214 76.0307 7.05107C76.1658 7.73 76.0964 8.43374 75.8315 9.07328C75.5666 9.71282 75.118 10.2594 74.5425 10.644C73.9669 11.0286 73.2902 11.2339 72.598 11.2339C71.6697 11.2339 70.7795 10.8651 70.1231 10.2088C69.4667 9.55238 69.098 8.66214 69.098 7.73389Z" fill="#FF5A3C"/>
</svg>
