<svg width="17" height="17" viewBox="0 0 17 17" fill="none" xmlns="http://www.w3.org/2000/svg">
<path d="M8.49993 9.51221C3.58793 9.51221 0.882935 11.7862 0.882935 15.9122C0.883715 15.99 0.899883 16.0669 0.93051 16.1385C0.961136 16.21 1.00562 16.2748 1.06139 16.3291C1.11716 16.3834 1.18311 16.4261 1.25546 16.4547C1.32781 16.4834 1.40512 16.4975 1.48293 16.4962H15.5209C15.5987 16.4975 15.6761 16.4834 15.7484 16.4547C15.8208 16.4261 15.8867 16.3834 15.9425 16.3291C15.9983 16.2748 16.0427 16.21 16.0734 16.1385C16.104 16.0669 16.1202 15.99 16.1209 15.9122C16.1169 11.7862 13.4119 9.51221 8.49993 9.51221ZM2.09993 15.3322C2.33493 12.2442 4.48593 10.6802 8.49993 10.6802C12.5139 10.6802 14.6679 12.2442 14.8999 15.3322H2.09993Z" fill="#263045"/>
<path d="M8.49993 0.500092C7.97739 0.487807 7.45778 0.581554 6.97248 0.775671C6.48718 0.969789 6.04627 1.26025 5.67635 1.62951C5.30643 1.99878 5.01519 2.43919 4.82021 2.92414C4.62524 3.40909 4.53056 3.92853 4.54192 4.45109C4.50865 4.99129 4.58633 5.53258 4.77016 6.04163C4.954 6.55067 5.2401 7.01669 5.61085 7.41098C5.9816 7.80527 6.42915 8.11948 6.92593 8.33427C7.42271 8.54905 7.95821 8.65985 8.49943 8.65985C9.04065 8.65985 9.57615 8.54905 10.0729 8.33427C10.5697 8.11948 11.0173 7.80527 11.388 7.41098C11.7588 7.01669 12.0449 6.55067 12.2287 6.04163C12.4125 5.53258 12.4902 4.99129 12.4569 4.45109C12.4683 3.92862 12.3736 3.40926 12.1787 2.92438C11.9838 2.43949 11.6927 1.99913 11.3229 1.62988C10.953 1.26063 10.5122 0.970151 10.0271 0.775972C9.54188 0.581792 9.02239 0.487944 8.49993 0.500092ZM8.49993 7.48809C7.73172 7.44948 7.00995 7.10859 6.49213 6.53981C5.97432 5.97104 5.70248 5.22055 5.73592 4.45209C5.72204 4.08451 5.78388 3.718 5.91763 3.37533C6.05137 3.03266 6.25415 2.72115 6.51336 2.46015C6.77257 2.19916 7.08268 1.99425 7.42443 1.85817C7.76618 1.72208 8.13226 1.65772 8.49993 1.66909C8.86644 1.66208 9.23057 1.72941 9.57034 1.86703C9.9101 2.00465 10.2185 2.2097 10.4768 2.4698C10.7351 2.72989 10.938 3.03965 11.0733 3.38035C11.2086 3.72105 11.2734 4.08564 11.2639 4.45209C11.2974 5.22055 11.0255 5.97104 10.5077 6.53981C9.9899 7.10859 9.26814 7.44948 8.49993 7.48809Z" fill="#263045"/>
</svg>
