<svg width="27" height="23" viewBox="0 0 27 23" fill="none" xmlns="http://www.w3.org/2000/svg">
<path opacity="0.07" d="M24.6979 0H2.69791C1.59334 0 0.697906 0.89543 0.697906 2V21C0.697906 22.1046 1.59334 23 2.69791 23H24.6979C25.8025 23 26.6979 22.1046 26.6979 21V2C26.6979 0.89543 25.8025 0 24.6979 0Z" fill="black"/>
<path d="M13.6979 6.171C12.6465 6.18264 11.6221 6.50504 10.7535 7.09763C9.88498 7.69022 9.21114 8.52651 8.81683 9.50123C8.42252 10.4759 8.32537 11.5455 8.53761 12.5753C8.74984 13.6051 9.26198 14.5491 10.0095 15.2885C10.7571 16.0279 11.7067 16.5296 12.7388 16.7305C13.7709 16.9314 14.8393 16.8225 15.8096 16.4175C16.7799 16.0124 17.6088 15.3294 18.1918 14.4544C18.7747 13.5794 19.0859 12.5514 19.0859 11.5C19.0767 10.0793 18.5041 8.72027 17.494 7.7212C16.4839 6.72213 15.1186 6.16461 13.6979 6.171ZM13.6979 16.003C12.8102 15.9925 11.9455 15.7198 11.2125 15.219C10.4794 14.7182 9.91092 14.0118 9.57844 13.1887C9.24596 12.3655 9.16437 11.4625 9.34394 10.5931C9.52352 9.72366 9.95623 8.92679 10.5876 8.30274C11.219 7.6787 12.0209 7.25536 12.8923 7.08598C13.7638 6.9166 14.6658 7.00874 15.485 7.35084C16.3042 7.69293 17.0039 8.26969 17.4961 9.00852C17.9882 9.74735 18.2509 10.6153 18.2509 11.503C18.2422 12.703 17.758 13.8505 16.9045 14.6941C16.0511 15.5376 14.8979 16.0083 13.6979 16.003Z" fill="black"/>
<path d="M15.7849 11.05H14.1109V9.399C14.1057 9.29181 14.0594 9.19072 13.9817 9.11671C13.904 9.0427 13.8008 9.00142 13.6934 9.00142C13.5861 9.00142 13.4829 9.0427 13.4052 9.11671C13.3275 9.19072 13.2812 9.29181 13.2759 9.399V11.05H11.6109C11.555 11.0473 11.4992 11.0559 11.4468 11.0754C11.3943 11.0949 11.3464 11.1248 11.3059 11.1634C11.2653 11.202 11.2331 11.2483 11.211 11.2998C11.189 11.3512 11.1776 11.4066 11.1776 11.4625C11.1776 11.5185 11.189 11.5738 11.211 11.6252C11.2331 11.6766 11.2653 11.723 11.3059 11.7616C11.3464 11.8002 11.3943 11.8301 11.4468 11.8496C11.4992 11.8691 11.555 11.8777 11.6109 11.875H13.2809V13.529C13.2862 13.6362 13.3325 13.7373 13.4102 13.8113C13.4879 13.8853 13.5911 13.9266 13.6984 13.9266C13.8058 13.9266 13.909 13.8853 13.9867 13.8113C14.0644 13.7373 14.1107 13.6362 14.1159 13.529V11.877H15.7849C15.8408 11.8798 15.8967 11.8711 15.9491 11.8516C16.0015 11.8322 16.0495 11.8022 16.09 11.7636C16.1305 11.7251 16.1628 11.6786 16.1848 11.6272C16.2069 11.5758 16.2182 11.5204 16.2182 11.4645C16.2182 11.4085 16.2069 11.3532 16.1848 11.3018C16.1628 11.2504 16.1305 11.2039 16.09 11.1654C16.0495 11.1268 16.0015 11.0968 15.9491 11.0773C15.8967 11.0579 15.8408 11.0492 15.7849 11.052V11.05Z" fill="black"/>
</svg>
